<?xml version="1.0" standalone="no"?>
<!DOCTYPE svg PUBLIC "-//W3C//DTD SVG 20010904//EN"
 "http://www.w3.org/TR/2001/REC-SVG-20010904/DTD/svg10.dtd">
<svg version="1.0" xmlns="http://www.w3.org/2000/svg"
 width="640.000000pt" height="640.000000pt" viewBox="0 0 640.000000 640.000000"
 preserveAspectRatio="xMidYMid meet">
<metadata>
Created by potrace 1.11, written by Peter Selinger 2001-2013
</metadata>
<g transform="translate(0.000000,640.000000) scale(0.100000,-0.100000)"
fill="#000000" stroke="none">
<path d="M0 3200 l0 -3200 3200 0 3200 0 0 3200 0 3200 -3200 0 -3200 0 0
-3200z m3449 2165 c140 -20 244 -46 381 -94 167 -59 205 -93 205 -186 0 -60
-21 -98 -73 -128 -47 -28 -98 -23 -208 18 -170 64 -398 105 -579 105 -189 0
-415 -42 -590 -111 -138 -53 -188 -59 -234 -27 -77 52 -98 122 -59 198 18 36
34 51 81 73 126 62 345 126 520 151 127 19 427 19 556 1z m1134 -589 c55 -23
201 -206 299 -376 186 -322 279 -694 266 -1054 -6 -139 -15 -171 -60 -213 -72
-66 -201 -36 -237 56 -5 14 -12 123 -14 241 -4 171 -9 236 -26 315 -60 276
-175 512 -357 737 -40 49 -76 103 -79 120 -27 119 96 221 208 174z m-2713 -39
c58 -30 82 -76 77 -144 -3 -45 -11 -60 -59 -120 -175 -216 -290 -457 -350
-733 -19 -90 -23 -139 -25 -344 -2 -218 -3 -242 -21 -265 -73 -100 -207 -94
-260 11 -20 40 -24 66 -29 195 -18 471 136 938 432 1308 58 73 118 115 165
115 15 0 46 -10 70 -23z m1344 -518 c49 -14 131 -89 161 -149 81 -160 81 -380
0 -540 -43 -84 -144 -160 -215 -160 -77 0 -173 77 -219 174 -39 84 -55 156
-55 256 0 47 6 110 13 140 31 130 114 245 197 275 48 17 68 18 118 4z m-635
-525 c79 -36 196 -158 243 -254 88 -178 88 -344 2 -440 -43 -48 -88 -64 -164
-58 -83 6 -157 47 -240 135 -113 118 -170 254 -170 403 0 205 144 299 329 214z
m1354 25 c43 -11 101 -59 122 -98 54 -106 30 -293 -57 -439 -43 -73 -142 -170
-206 -205 -95 -52 -206 -49 -269 6 -138 121 -89 421 101 612 108 109 212 151
309 124z m906 -1087 c40 -29 62 -66 68 -111 5 -34 0 -53 -26 -104 -45 -88
-176 -263 -276 -366 l-84 -87 310 -310 c171 -170 322 -328 336 -352 76 -128
-19 -292 -169 -292 -27 0 -63 7 -81 16 -18 9 -185 169 -373 356 l-340 339
-105 -55 c-199 -105 -469 -196 -543 -182 -94 18 -150 121 -112 209 22 53 55
73 168 106 430 123 765 378 1001 761 29 46 48 66 80 81 49 23 108 19 146 -9z
m-3132 -44 c14 -12 56 -69 94 -125 163 -238 400 -440 662 -563 107 -50 252
-100 350 -120 69 -14 110 -46 132 -104 31 -81 -15 -170 -102 -196 -35 -11 -53
-9 -149 15 -274 68 -540 201 -764 382 -214 173 -470 495 -470 593 0 44 27 98
61 123 56 41 140 39 186 -5z"/>
</g>
</svg>
