<?xml version="1.0" encoding="utf-8"?>
<!-- Generator: Adobe Illustrator 23.0.2, SVG Export Plug-In . SVG Version: 6.00 Build 0)  -->
<svg version="1.1" xmlns="http://www.w3.org/2000/svg" xmlns:xlink="http://www.w3.org/1999/xlink" x="0px" y="0px"
	 viewBox="0 0 240 240" style="enable-background:new 0 0 240 240;" xml:space="preserve">
<style type="text/css">
	.st0{fill:none;}
	.st1{fill:#E1AF00;}
	.st2{display:none;}
	.st3{display:inline;}
</style>
<g id="Hit_Area">
	<rect class="st0" width="240" height="240"/>
</g>
<g id="Hide">
	<g>
		<path class="st1" d="M221,22.5c-2.8,0-5.1-2.3-5.1-5.1c0-0.3,0-0.6,0.1-0.9l-1-0.8c-1.9,1.1-3.3,2.4-4.1,3.2
			c1.5,1.5,5.6,5.1,10.1,5.1c1.4,0,2.7-0.3,3.9-0.8l-1.7-1.3C222.6,22.4,221.8,22.5,221,22.5z"/>
		<path class="st1" d="M240,0h-38v38h38V0z M232.2,27.5c-0.2,0.3-0.5,0.4-0.9,0.4c-0.2,0-0.5-0.1-0.6-0.2l-3.8-2.9
			c-1.7,0.8-3.7,1.4-5.8,1.4c-6.8,0-12.2-6.3-12.4-6.5c-0.3-0.4-0.3-1,0-1.4c0.1-0.1,1.9-2.2,4.6-3.9L210,12c-0.5-0.3-0.6-1-0.2-1.5
			c0.3-0.5,1-0.6,1.5-0.2L232,26C232.5,26.3,232.6,27,232.2,27.5z M233.5,19.7c-0.1,0.1-1.3,1.4-3.1,2.9l-1.8-1.4
			c1.1-0.8,2-1.7,2.6-2.2c-1-1-3.1-2.9-5.7-4.1c0.4,0.7,0.7,1.6,0.7,2.5c0,0.6-0.1,1.1-0.3,1.7l-8.8-6.7c1.3-0.4,2.6-0.7,4-0.7
			c6.8,0,12.2,6.3,12.4,6.5C233.8,18.7,233.8,19.3,233.5,19.7z"/>
	</g>
</g>
<g id="Show" class="st2">
	<g class="st3">
		<path class="st1" d="M225.4,14.9c0.5,0.8,0.7,1.7,0.7,2.6c0,2.8-2.3,5.1-5.1,5.1c-2.8,0-5.1-2.3-5.1-5.1c0-0.9,0.3-1.8,0.7-2.6
			c-1,0.5-1.6,0.9-1.6,0.9l0,0c-1.9,1.1-3.3,2.4-4.1,3.2c1.5,1.5,5.6,5.1,10.1,5.1c1.4,0,2.7-0.3,3.9-0.8l0,0l0,0c0,0,2-0.7,3.7-2.1
			c1.1-0.8,2-1.7,2.6-2.2C230.1,18,228,16.1,225.4,14.9C225.4,14.9,225.4,14.9,225.4,14.9z"/>
		<path class="st1" d="M240,0h-38v38h38V0z M233.5,19.7c-0.1,0.1-1.3,1.4-3.1,2.9c0,0-1.5,1.3-3.5,2.2c-1.7,0.8-3.7,1.4-5.8,1.4
			c-6.8,0-12.2-6.3-12.4-6.5c-0.3-0.4-0.3-1,0-1.4c0.1-0.1,1.9-2.2,4.6-3.9c0,0,1.7-1.2,3.9-1.9c1.3-0.4,2.6-0.7,4-0.7
			c6.8,0,12.2,6.3,12.4,6.5C233.8,18.7,233.8,19.3,233.5,19.7z"/>
	</g>
</g>
</svg>
