<?xml version="1.0" encoding="utf-8"?>
<!-- Generator: Adobe Illustrator 23.0.2, SVG Export Plug-In . SVG Version: 6.00 Build 0)  -->
<svg version="1.1" id="Layer_1" xmlns="http://www.w3.org/2000/svg" xmlns:xlink="http://www.w3.org/1999/xlink" x="0px" y="0px"
	 viewBox="0 0 320 79.6" style="enable-background:new 0 0 320 79.6;" xml:space="preserve">
<style type="text/css">
	.st0{fill:#E8E6E5;}
</style>
<g>
	<path class="st0" d="M105.2,69.2l-0.9,6.1h-0.8l0.9-6.1H105.2z"/>
	<path class="st0" d="M110.5,68.8l-0.9,6.5h-0.7l0-0.8c-0.2,0.3-0.4,0.5-0.6,0.6c-0.2,0.2-0.5,0.2-0.8,0.2c-0.5,0-0.8-0.2-1.1-0.5
		c-0.3-0.3-0.4-0.8-0.4-1.4c0-0.4,0.1-0.9,0.2-1.4c0.2-0.5,0.4-0.9,0.7-1.2s0.7-0.5,1.2-0.5c0.5,0,0.9,0.2,1.2,0.6l0.3-2.4
		L110.5,68.8z M107.5,71.6c-0.2,0.3-0.4,0.6-0.5,1c-0.1,0.4-0.1,0.7-0.1,1.1c0,0.4,0.1,0.7,0.2,0.9c0.1,0.2,0.3,0.3,0.6,0.3
		c0.3,0,0.5-0.1,0.7-0.3c0.2-0.2,0.4-0.4,0.7-0.8l0.3-1.9c-0.1-0.2-0.3-0.3-0.4-0.4s-0.3-0.1-0.5-0.1
		C108,71.2,107.7,71.3,107.5,71.6z"/>
	<path class="st0" d="M114.3,73c-0.5,0.3-1.3,0.5-2.2,0.6c0,0.8,0.4,1.2,1,1.2c0.2,0,0.4,0,0.6-0.1c0.2-0.1,0.4-0.2,0.6-0.3l0.3,0.6
		c-0.5,0.4-1.1,0.6-1.7,0.6c-0.6,0-1-0.2-1.3-0.5c-0.3-0.3-0.5-0.8-0.5-1.4c0-0.5,0.1-0.9,0.2-1.4c0.2-0.5,0.4-0.8,0.8-1.1
		c0.4-0.3,0.8-0.5,1.4-0.5c0.5,0,0.8,0.1,1.1,0.3s0.4,0.5,0.4,0.8C115.1,72.3,114.8,72.8,114.3,73z M113.7,72.6
		c0.3-0.2,0.5-0.4,0.5-0.8c0-0.1-0.1-0.3-0.2-0.4c-0.1-0.1-0.3-0.2-0.5-0.2c-0.4,0-0.8,0.2-1,0.5c-0.2,0.3-0.4,0.8-0.5,1.3
		C112.8,72.9,113.4,72.8,113.7,72.6z"/>
	<path class="st0" d="M119.6,70.9c0.2,0.2,0.3,0.5,0.3,0.9c0,0.1,0,0.2,0,0.3l-0.5,3.3h-0.8l0.5-3.3c0-0.1,0-0.2,0-0.3
		c0-0.2,0-0.4-0.1-0.4c-0.1-0.1-0.2-0.1-0.4-0.1c-0.3,0-0.5,0.1-0.8,0.4c-0.3,0.2-0.5,0.6-0.7,0.9l-0.4,2.8h-0.8l0.7-4.7h0.7
		l-0.1,0.9c0.2-0.3,0.5-0.6,0.7-0.8s0.6-0.3,0.9-0.3C119.1,70.5,119.4,70.6,119.6,70.9z"/>
	<path class="st0" d="M122,74.1c0,0.1,0,0.2,0,0.2c0,0.1,0,0.3,0.1,0.3c0.1,0.1,0.2,0.1,0.3,0.1c0.1,0,0.2,0,0.3,0
		c0.1,0,0.2-0.1,0.4-0.1l0.3,0.6c-0.3,0.2-0.7,0.3-1,0.3c-0.4,0-0.6-0.1-0.8-0.3s-0.3-0.5-0.3-0.8c0-0.1,0-0.2,0-0.3l0.4-2.8h-0.8
		l0.1-0.6h0.8l0.3-1.1l0.6-0.1l-0.2,1.2h1.1l-0.2,0.6h-1L122,74.1z"/>
	<path class="st0" d="M125.6,70.7l-0.7,4.7h-0.8l0.7-4.7H125.6z M125,69.4c-0.1-0.1-0.1-0.2-0.1-0.4c0-0.2,0.1-0.3,0.2-0.4
		c0.1-0.1,0.3-0.2,0.4-0.2c0.2,0,0.3,0,0.4,0.1s0.1,0.2,0.1,0.4c0,0.2-0.1,0.3-0.2,0.4c-0.1,0.1-0.3,0.2-0.4,0.2
		C125.2,69.5,125.1,69.5,125,69.4z"/>
	<path class="st0" d="M128.5,69.5c-0.1,0.1-0.2,0.3-0.2,0.5l-0.1,0.6h1.1l-0.2,0.6h-1l-0.5,3.8c-0.1,0.4-0.2,0.8-0.3,1
		c-0.1,0.3-0.3,0.5-0.5,0.6c-0.2,0.2-0.5,0.3-0.9,0.5l-0.2-0.6c0.2-0.1,0.4-0.2,0.6-0.3c0.1-0.1,0.3-0.3,0.4-0.4
		c0.1-0.2,0.2-0.4,0.2-0.8l0.5-3.8h-0.8l0.1-0.6h0.8l0.1-0.7c0.1-0.4,0.2-0.7,0.5-1c0.3-0.2,0.6-0.4,1.1-0.4c0.2,0,0.4,0,0.6,0.1
		c0.2,0.1,0.3,0.1,0.5,0.3l-0.3,0.5c-0.2-0.1-0.5-0.2-0.8-0.2C128.8,69.3,128.6,69.4,128.5,69.5z"/>
	<path class="st0" d="M131.4,75.4c-0.2,0.5-0.6,1-0.9,1.3c-0.4,0.3-0.9,0.5-1.5,0.6l0-0.6c0.3-0.1,0.6-0.1,0.8-0.2s0.4-0.2,0.5-0.4
		c0.1-0.2,0.3-0.4,0.4-0.6h-0.3l-0.9-4.7h0.9l0.7,4.1l1.8-4.1h0.8L131.4,75.4z"/>
	<path class="st0" d="M140.4,75.3h-1.1l-1.7-5.4c0,0.7-0.1,1.6-0.2,2.6l-0.4,2.8h-0.8l0.9-6.1h1.1l1.8,5.4c0-0.4,0-0.8,0-1.1
		c0-0.3,0.1-0.6,0.1-1l0.5-3.3h0.8L140.4,75.3z"/>
	<path class="st0" d="M145.2,73c-0.5,0.3-1.3,0.5-2.2,0.6c0,0.8,0.4,1.2,1,1.2c0.2,0,0.4,0,0.6-0.1c0.2-0.1,0.4-0.2,0.6-0.3l0.3,0.6
		c-0.5,0.4-1.1,0.6-1.7,0.6c-0.6,0-1-0.2-1.3-0.5c-0.3-0.3-0.5-0.8-0.5-1.4c0-0.5,0.1-0.9,0.2-1.4c0.2-0.5,0.4-0.8,0.8-1.1
		c0.4-0.3,0.8-0.5,1.4-0.5c0.5,0,0.8,0.1,1.1,0.3s0.4,0.5,0.4,0.8C146,72.3,145.7,72.8,145.2,73z M144.6,72.6
		c0.3-0.2,0.5-0.4,0.5-0.8c0-0.1-0.1-0.3-0.2-0.4c-0.1-0.1-0.3-0.2-0.5-0.2c-0.4,0-0.8,0.2-1,0.5c-0.2,0.3-0.4,0.8-0.5,1.3
		C143.7,72.9,144.3,72.8,144.6,72.6z"/>
	<path class="st0" d="M152.7,70.7l-1.7,4.7h-1.1l-0.2-3.9l-1.4,3.9h-1.1l-0.4-4.7h0.8l0.3,4.1l1.5-4.1h0.9l0.3,4.1l1.4-4.1H152.7z"
		/>
	<path class="st0" d="M154.8,75.3l0.1-0.7l3.7-4.7h-2.7l0.1-0.7h3.6l-0.1,0.7l-3.6,4.7l3,0l-0.2,0.7H154.8z"/>
	<path class="st0" d="M162.8,73c-0.5,0.3-1.3,0.5-2.2,0.6c0,0.8,0.4,1.2,1,1.2c0.2,0,0.4,0,0.6-0.1c0.2-0.1,0.4-0.2,0.6-0.3l0.3,0.6
		c-0.5,0.4-1.1,0.6-1.7,0.6c-0.6,0-1-0.2-1.3-0.5c-0.3-0.3-0.5-0.8-0.5-1.4c0-0.5,0.1-0.9,0.2-1.4c0.2-0.5,0.4-0.8,0.8-1.1
		c0.4-0.3,0.8-0.5,1.4-0.5c0.5,0,0.8,0.1,1.1,0.3s0.4,0.5,0.4,0.8C163.5,72.3,163.3,72.8,162.8,73z M162.2,72.6
		c0.3-0.2,0.5-0.4,0.5-0.8c0-0.1-0.1-0.3-0.2-0.4c-0.1-0.1-0.3-0.2-0.5-0.2c-0.4,0-0.8,0.2-1,0.5c-0.2,0.3-0.4,0.8-0.5,1.3
		C161.3,72.9,161.8,72.8,162.2,72.6z"/>
	<path class="st0" d="M167.5,70.6c0.3,0.1,0.5,0.2,0.8,0.3l-0.5,3.3c0,0.1,0,0.2,0,0.2c0,0.1,0,0.2,0.1,0.3c0,0.1,0.1,0.1,0.2,0.2
		l-0.2,0.6c-0.2,0-0.4-0.1-0.6-0.2c-0.1-0.1-0.2-0.3-0.2-0.5c-0.2,0.2-0.4,0.4-0.6,0.6c-0.2,0.1-0.5,0.2-0.8,0.2
		c-0.5,0-0.8-0.2-1.1-0.5c-0.3-0.3-0.4-0.8-0.4-1.3c0-0.5,0.1-0.9,0.3-1.4c0.2-0.5,0.4-0.9,0.8-1.2s0.8-0.5,1.4-0.5
		C167,70.5,167.2,70.6,167.5,70.6z M165.8,71.6c-0.2,0.3-0.4,0.6-0.5,0.9c-0.1,0.4-0.2,0.8-0.2,1.1s0.1,0.7,0.2,0.9
		c0.1,0.2,0.3,0.3,0.6,0.3c0.2,0,0.5-0.1,0.7-0.2c0.2-0.1,0.4-0.4,0.6-0.6l0.4-2.6c-0.1-0.1-0.2-0.1-0.4-0.1s-0.2,0-0.4,0
		C166.3,71.2,166,71.3,165.8,71.6z"/>
	<path class="st0" d="M170.2,74.4c0,0,0,0.1,0,0.1c0,0.1,0,0.1,0.1,0.2c0,0,0.1,0.1,0.2,0.1c0.1,0,0.2,0,0.3-0.1l0.2,0.6
		c-0.2,0.1-0.4,0.2-0.6,0.2c-0.3,0-0.5-0.1-0.6-0.2c-0.2-0.1-0.2-0.4-0.2-0.7c0-0.1,0-0.1,0-0.3l0.8-5.5l0.8-0.1L170.2,74.4z"/>
	<path class="st0" d="M175.1,70.6c0.3,0.1,0.5,0.2,0.8,0.3l-0.5,3.3c0,0.1,0,0.2,0,0.2c0,0.1,0,0.2,0.1,0.3c0,0.1,0.1,0.1,0.2,0.2
		l-0.2,0.6c-0.2,0-0.4-0.1-0.6-0.2s-0.2-0.3-0.2-0.5c-0.2,0.2-0.4,0.4-0.6,0.6c-0.2,0.1-0.5,0.2-0.8,0.2c-0.5,0-0.8-0.2-1.1-0.5
		c-0.3-0.3-0.4-0.8-0.4-1.3c0-0.5,0.1-0.9,0.3-1.4c0.2-0.5,0.4-0.9,0.8-1.2c0.4-0.3,0.8-0.5,1.4-0.5
		C174.5,70.5,174.8,70.6,175.1,70.6z M173.3,71.6c-0.2,0.3-0.4,0.6-0.5,0.9c-0.1,0.4-0.2,0.8-0.2,1.1s0.1,0.7,0.2,0.9
		c0.1,0.2,0.3,0.3,0.6,0.3c0.2,0,0.5-0.1,0.7-0.2c0.2-0.1,0.4-0.4,0.6-0.6l0.4-2.6c-0.1-0.1-0.2-0.1-0.4-0.1s-0.2,0-0.4,0
		C173.9,71.2,173.6,71.3,173.3,71.6z"/>
	<path class="st0" d="M180.6,70.9c0.2,0.2,0.3,0.5,0.3,0.9c0,0.1,0,0.2,0,0.3l-0.5,3.3h-0.8l0.5-3.3c0-0.1,0-0.2,0-0.3
		c0-0.2,0-0.4-0.1-0.4c-0.1-0.1-0.2-0.1-0.4-0.1c-0.3,0-0.5,0.1-0.8,0.4c-0.3,0.2-0.5,0.6-0.7,0.9l-0.4,2.8h-0.8l0.7-4.7h0.7
		l-0.1,0.9c0.2-0.3,0.5-0.6,0.7-0.8s0.6-0.3,0.9-0.3C180.1,70.5,180.4,70.6,180.6,70.9z"/>
	<path class="st0" d="M186.5,68.8l-0.9,6.5h-0.7l0-0.8c-0.2,0.3-0.4,0.5-0.6,0.6c-0.2,0.2-0.5,0.2-0.8,0.2c-0.5,0-0.8-0.2-1.1-0.5
		c-0.3-0.3-0.4-0.8-0.4-1.4c0-0.4,0.1-0.9,0.2-1.4c0.2-0.5,0.4-0.9,0.7-1.2s0.7-0.5,1.2-0.5c0.5,0,0.9,0.2,1.2,0.6l0.3-2.4
		L186.5,68.8z M183.4,71.6c-0.2,0.3-0.4,0.6-0.5,1c-0.1,0.4-0.1,0.7-0.1,1.1c0,0.4,0.1,0.7,0.2,0.9c0.1,0.2,0.3,0.3,0.6,0.3
		c0.3,0,0.5-0.1,0.7-0.3c0.2-0.2,0.4-0.4,0.7-0.8l0.3-1.9c-0.1-0.2-0.3-0.3-0.4-0.4c-0.2-0.1-0.3-0.1-0.6-0.1
		C183.9,71.2,183.6,71.3,183.4,71.6z"/>
	<path class="st0" d="M192.8,70.6c0.3,0.1,0.5,0.2,0.8,0.3l-0.5,3.3c0,0.1,0,0.2,0,0.2c0,0.1,0,0.2,0.1,0.3c0,0.1,0.1,0.1,0.2,0.2
		l-0.2,0.6c-0.2,0-0.4-0.1-0.6-0.2s-0.2-0.3-0.2-0.5c-0.2,0.2-0.4,0.4-0.6,0.6c-0.2,0.1-0.5,0.2-0.8,0.2c-0.5,0-0.8-0.2-1.1-0.5
		c-0.3-0.3-0.4-0.8-0.4-1.3c0-0.5,0.1-0.9,0.3-1.4c0.2-0.5,0.4-0.9,0.8-1.2c0.4-0.3,0.8-0.5,1.4-0.5
		C192.2,70.5,192.5,70.6,192.8,70.6z M191,71.6c-0.2,0.3-0.4,0.6-0.5,0.9c-0.1,0.4-0.2,0.8-0.2,1.1s0.1,0.7,0.2,0.9
		c0.1,0.2,0.3,0.3,0.6,0.3c0.2,0,0.5-0.1,0.7-0.2c0.2-0.1,0.4-0.4,0.6-0.6l0.4-2.6c-0.1-0.1-0.2-0.1-0.4-0.1s-0.2,0-0.4,0
		C191.6,71.2,191.3,71.3,191,71.6z"/>
	<path class="st0" d="M198.3,70.9c0.2,0.2,0.3,0.5,0.3,0.9c0,0.1,0,0.2,0,0.3l-0.5,3.3h-0.8l0.5-3.3c0-0.1,0-0.2,0-0.3
		c0-0.2,0-0.4-0.1-0.4c-0.1-0.1-0.2-0.1-0.4-0.1c-0.3,0-0.5,0.1-0.8,0.4c-0.3,0.2-0.5,0.6-0.7,0.9l-0.4,2.8h-0.8l0.7-4.7h0.7
		l-0.1,0.9c0.2-0.3,0.5-0.6,0.7-0.8s0.6-0.3,0.9-0.3C197.8,70.5,198.1,70.6,198.3,70.9z"/>
	<path class="st0" d="M201.2,70.7l-0.7,4.7h-0.8l0.7-4.7H201.2z M200.6,69.4c-0.1-0.1-0.1-0.2-0.1-0.4c0-0.2,0.1-0.3,0.2-0.4
		c0.1-0.1,0.3-0.2,0.4-0.2c0.2,0,0.3,0,0.4,0.1s0.1,0.2,0.1,0.4c0,0.2-0.1,0.3-0.2,0.4s-0.3,0.2-0.4,0.2
		C200.8,69.5,200.7,69.5,200.6,69.4z"/>
	<path class="st0" d="M208.3,70.9c0.2,0.2,0.3,0.5,0.3,0.8c0,0.1,0,0.2,0,0.3l-0.5,3.3h-0.8l0.5-3.3c0-0.1,0-0.2,0-0.3
		c0-0.2,0-0.4-0.1-0.4c-0.1-0.1-0.2-0.1-0.4-0.1c-0.2,0-0.4,0.1-0.7,0.4c-0.2,0.2-0.4,0.5-0.7,0.9l-0.4,2.8h-0.8l0.5-3.3
		c0-0.1,0-0.2,0-0.3c0-0.2,0-0.4-0.1-0.4s-0.2-0.1-0.4-0.1c-0.2,0-0.4,0.1-0.7,0.4c-0.2,0.2-0.4,0.6-0.7,0.9l-0.4,2.8h-0.8l0.7-4.7
		h0.7l-0.1,0.9c0.2-0.3,0.5-0.6,0.7-0.7s0.5-0.3,0.8-0.3c0.3,0,0.5,0.1,0.7,0.2c0.2,0.2,0.3,0.4,0.3,0.7c0.2-0.3,0.5-0.6,0.7-0.7
		c0.3-0.2,0.5-0.2,0.8-0.2C207.8,70.5,208.1,70.6,208.3,70.9z"/>
	<path class="st0" d="M213,70.6c0.3,0.1,0.5,0.2,0.8,0.3l-0.5,3.3c0,0.1,0,0.2,0,0.2c0,0.1,0,0.2,0.1,0.3c0,0.1,0.1,0.1,0.2,0.2
		l-0.2,0.6c-0.2,0-0.4-0.1-0.6-0.2s-0.2-0.3-0.2-0.5c-0.2,0.2-0.4,0.4-0.6,0.6c-0.2,0.1-0.5,0.2-0.8,0.2c-0.5,0-0.8-0.2-1.1-0.5
		c-0.3-0.3-0.4-0.8-0.4-1.3c0-0.5,0.1-0.9,0.3-1.4c0.2-0.5,0.4-0.9,0.8-1.2c0.4-0.3,0.8-0.5,1.4-0.5C212.4,70.5,212.7,70.6,213,70.6
		z M211.2,71.6c-0.2,0.3-0.4,0.6-0.5,0.9c-0.1,0.4-0.2,0.8-0.2,1.1s0.1,0.7,0.2,0.9c0.1,0.2,0.3,0.3,0.6,0.3c0.2,0,0.5-0.1,0.7-0.2
		c0.2-0.1,0.4-0.4,0.6-0.6l0.4-2.6c-0.1-0.1-0.2-0.1-0.4-0.1s-0.2,0-0.4,0C211.8,71.2,211.5,71.3,211.2,71.6z"/>
	<path class="st0" d="M215.6,74.4c0,0,0,0.1,0,0.1c0,0.1,0,0.1,0.1,0.2c0,0,0.1,0.1,0.2,0.1c0.1,0,0.2,0,0.3-0.1l0.2,0.6
		c-0.2,0.1-0.4,0.2-0.6,0.2c-0.3,0-0.5-0.1-0.6-0.2c-0.2-0.1-0.2-0.4-0.2-0.7c0-0.1,0-0.1,0-0.3l0.8-5.5l0.8-0.1L215.6,74.4z"/>
	<path class="st0" d="M223,71.1l-0.4,0.5c-0.3-0.3-0.7-0.4-1.1-0.4c-0.3,0-0.5,0.1-0.7,0.2c-0.2,0.1-0.3,0.3-0.3,0.5
		c0,0.2,0.1,0.3,0.2,0.4c0.1,0.1,0.4,0.2,0.7,0.3c0.5,0.1,0.8,0.3,1,0.5s0.3,0.5,0.3,0.9c0,0.3-0.1,0.6-0.3,0.8s-0.4,0.4-0.7,0.5
		s-0.6,0.2-1,0.2c-0.7,0-1.3-0.2-1.7-0.7l0.5-0.5c0.4,0.3,0.8,0.5,1.3,0.5c0.4,0,0.6-0.1,0.8-0.2c0.2-0.2,0.2-0.3,0.2-0.5
		c0-0.2,0-0.3-0.1-0.4c-0.1-0.1-0.2-0.2-0.3-0.2c-0.1-0.1-0.3-0.1-0.6-0.2c-0.4-0.1-0.8-0.3-1-0.5c-0.2-0.2-0.3-0.5-0.3-0.8
		c0-0.2,0.1-0.4,0.2-0.6s0.3-0.4,0.6-0.5c0.3-0.1,0.6-0.2,1-0.2C222,70.5,222.5,70.7,223,71.1z"/>
	<path class="st0" d="M225.2,70.7l-0.7,4.7h-0.8l0.7-4.7H225.2z M224.6,69.4c-0.1-0.1-0.1-0.2-0.1-0.4c0-0.2,0.1-0.3,0.2-0.4
		c0.1-0.1,0.3-0.2,0.4-0.2c0.2,0,0.3,0,0.4,0.1s0.1,0.2,0.1,0.4c0,0.2-0.1,0.3-0.2,0.4s-0.3,0.2-0.4,0.2
		C224.8,69.5,224.7,69.5,224.6,69.4z"/>
	<path class="st0" d="M229.5,70.6c0.3,0.1,0.5,0.2,0.8,0.3l-0.6,4.3c-0.1,0.7-0.3,1.2-0.7,1.5c-0.4,0.3-0.8,0.5-1.4,0.5
		c-0.3,0-0.6,0-0.8-0.1s-0.5-0.2-0.8-0.3l0.3-0.6c0.2,0.1,0.4,0.2,0.6,0.3s0.4,0.1,0.7,0.1c0.4,0,0.7-0.1,0.9-0.3s0.4-0.5,0.5-1.1
		l0.1-0.6c-0.2,0.2-0.4,0.4-0.6,0.5s-0.5,0.2-0.7,0.2c-0.5,0-0.8-0.2-1.1-0.5c-0.3-0.3-0.4-0.7-0.4-1.3c0-0.5,0.1-1,0.3-1.4
		c0.2-0.5,0.5-0.8,0.8-1.1c0.4-0.3,0.9-0.4,1.4-0.4C228.9,70.5,229.2,70.6,229.5,70.6z M227.7,71.5c-0.3,0.2-0.4,0.5-0.6,0.9
		s-0.2,0.7-0.2,1.1c0,0.4,0.1,0.6,0.2,0.8c0.1,0.2,0.3,0.3,0.6,0.3c0.2,0,0.5-0.1,0.7-0.2c0.2-0.2,0.4-0.4,0.6-0.6l0.4-2.5
		c-0.1-0.1-0.3-0.1-0.4-0.1s-0.3,0-0.4,0C228.3,71.2,228,71.3,227.7,71.5z"/>
	<path class="st0" d="M235,70.9c0.2,0.2,0.3,0.5,0.3,0.9c0,0.1,0,0.2,0,0.3l-0.5,3.3H234l0.5-3.3c0-0.1,0-0.2,0-0.3
		c0-0.2,0-0.4-0.1-0.4c-0.1-0.1-0.2-0.1-0.4-0.1c-0.3,0-0.5,0.1-0.8,0.4c-0.3,0.2-0.5,0.6-0.7,0.9l-0.4,2.8h-0.8l0.7-4.7h0.7
		l-0.1,0.9c0.2-0.3,0.5-0.6,0.7-0.8s0.6-0.3,0.9-0.3C234.6,70.5,234.8,70.6,235,70.9z"/>
</g>
<g>
	<g>
		<path class="st0" d="M95.2,56l-2.8-9.5c-0.4-1.4-0.8-3.4-1-5.2c0,1.1-0.4,3.6-1.1,7L88.6,56h-6.7l5.8-27.5h6.8l3,9.4
			c0.5,1.5,0.9,3.4,1.2,5.2c0.2-1.6,0.7-4.3,1.1-6.1l1.8-8.5h6.7L102.5,56H95.2z"/>
		<path class="st0" d="M125.4,56h-18.8l1-4.8l12.2-14.7c0.8-1,1.7-2,2.2-2.4c-0.6,0.2-1.9,0.3-2.8,0.3h-7.1l1.7-5.8h17.8l-1,4.9
			L117.8,49c-0.5,0.6-1.2,1.2-1.6,1.5c0.7-0.2,2-0.2,3.1-0.2h7.9L125.4,56z"/>
	</g>
	<g>
		<path class="st0" d="M158.3,34.4h-6.4L147.3,56h-7.1l4.6-21.6h-6.4l1.2-5.8h20.7L158.3,34.4z"/>
		<path class="st0" d="M169.3,41.3c-0.6-0.4-1.1-0.6-1.9-0.6c-1.2,0-1.9,0.6-2.8,1.9L161.8,56h-6.9l2.6-12.4c0.7-3.5,1-5.3,0.6-7.3
			l6.1-1.1c0.2,0.7,0.4,1.5,0.4,2.3c1-1.1,2.8-2.4,5-2.4c1,0,1.6,0.2,2.4,0.6L169.3,41.3z"/>
		<path class="st0" d="M188.9,42l-1.5,7.3c-0.2,0.7-0.1,2.1,0.8,3.1l-5.6,4.5c-0.8-0.4-1.4-1.7-1.5-2.4c-0.9,0.9-2.9,2.2-5.3,2.2
			c-4.1,0-5.9-2.6-5.9-6.9s1.7-8.8,4.4-11.5c2.3-2.3,4.8-3.1,8.4-3.1c2.8,0,6.3,0.5,7.8,1.2C189.8,37.8,189.2,40.3,188.9,42z
			 M181.6,40.3c-0.5,0-1.5,0-2.5,1.1c-1.5,1.7-2.3,5.7-2.3,8.2c0,1.4,0.4,2,1.3,2c0.8,0,2.2-1.4,2.4-2.1l1.9-8.9
			C182.2,40.4,181.8,40.3,181.6,40.3z"/>
		<path class="st0" d="M198.4,56.6c-5.7,0-8.4-3.6-7-10.5c1.5-6.9,5.6-10.9,11.6-10.9c2.9,0,4.5,0.7,6.1,2.4l-4,4.1
			c-0.6-0.8-1.6-1.5-2.6-1.5c-1.6,0-2.8,1.3-3.6,5.4c-0.9,4.1-0.8,5.8,1.2,5.8c1.5,0,3-0.7,4.1-1.8l2,4
			C203.7,55.9,200.9,56.6,198.4,56.6z"/>
		<path class="st0" d="M215,56h-6.9l4.3-20.4c1-4.8,1.2-6.1,1.1-7.4l7.2-1.2c0,1-0.1,2.6-0.7,5.6L215,56z M220.3,56l-2.8-11.5
			l5.5-8.8h8l-7.3,8.3L228,56H220.3z"/>
		<path class="st0" d="M237.4,49.2c0,2,0.7,2.5,2.8,2.5c1.7,0,4-0.8,5.7-2l1.3,4.3c-3.2,1.8-6.3,2.5-8.4,2.5c-5.8,0-8.5-2.3-8.5-7.5
			c0-7.5,4.4-13.9,11.9-13.9c4.3,0,7.7,1.6,7.7,5.8c0,3.8-3.5,7.2-10.2,7.2c-1.1,0-2.1-0.1-2.4-0.2C237.4,48.4,237.4,49,237.4,49.2z
			 M240,43.6c1.5,0,3.2-0.8,3.2-2.2c0-0.9-0.6-1.4-1.5-1.4c-1.7,0-2.7,1.4-3.1,3.5C238.8,43.5,239.2,43.6,240,43.6z"/>
		<path class="st0" d="M264.7,41.3c-0.6-0.4-1.1-0.6-1.9-0.6c-1.2,0-1.9,0.6-2.8,1.9L257.1,56h-6.9l2.6-12.4c0.7-3.5,1-5.3,0.6-7.3
			l6.1-1.1c0.2,0.7,0.4,1.5,0.4,2.3c1-1.1,2.8-2.4,5-2.4c1,0,1.6,0.2,2.4,0.6L264.7,41.3z"/>
	</g>
	<g>
		<path class="st0" d="M263,56.4c-1,0-1.8-0.8-1.8-1.9c0-1,0.8-1.8,1.8-1.8c1,0,1.9,0.8,1.9,1.8C264.9,55.5,264,56.4,263,56.4z"/>
		<path class="st0" d="M275.5,49.8c0,2.4-1.4,6.5-5.7,6.5c-2.2,0-3.5-1.2-3.5-3.4c0-2.4,1.3-6.4,5.7-6.4
			C274,46.5,275.5,47.4,275.5,49.8z M269.6,53.2c0,0.6,0.2,0.9,0.7,0.9c1.3,0,1.8-3.9,1.8-4.6s-0.2-0.9-0.7-0.9
			C270.2,48.7,269.6,52.6,269.6,53.2z"/>
		<path class="st0" d="M282.5,49.3c-0.3-0.2-0.5-0.3-0.9-0.3c-0.5,0-0.9,0.3-1.3,0.9L279,56h-3.2l1.2-5.7c0.3-1.6,0.5-2.4,0.3-3.4
			l2.8-0.5c0.1,0.3,0.2,0.7,0.2,1.1c0.5-0.5,1.3-1.1,2.3-1.1c0.5,0,0.7,0.1,1.1,0.3L282.5,49.3z"/>
		<path class="st0" d="M291.9,47.9l-1.1,5.1c-0.6,2.5-0.6,3.2-0.8,4.3c-0.4,2.1-2.4,3-5.1,3c-1.4,0-2.7-0.4-3.4-0.9l1.1-2
			c0.4,0.3,1.2,0.6,2.5,0.6c1,0,1.7-0.7,1.9-1.5c0.1-0.3,0.1-0.6,0.2-0.8c-0.4,0.3-0.9,0.5-1.7,0.5c-1.8,0-2.7-0.9-2.7-3.3
			c0-1.9,0.9-6.5,5.7-6.5c1.3,0,2.5,0.1,3.7,0.5C292.1,47.2,292,47.6,291.9,47.9z M287.8,48.8c-1.1,0-1.9,2.7-1.9,4
			c0,1,0.2,1.2,0.8,1.2c0.3,0,0.7-0.4,0.8-0.6l1-4.4C288.4,48.9,288.1,48.8,287.8,48.8z"/>
	</g>
</g>
<path class="st0" d="M84.4,72.8c-1-1.9-1.1-3.8-0.2-4.3s2.4,0.7,3.4,2.7c1,1.9,1.1,3.8,0.2,4.3C86.9,75.9,85.3,74.7,84.4,72.8z
	 M77.5,75.1c-1.9,1-3.1,2.5-2.7,3.4s2.4,0.8,4.3-0.2c1.9-1,3.1-2.5,2.7-3.4C81.3,74,79.4,74.1,77.5,75.1z M76.3,73.2
	c0.9-0.4,0.9-2.4-0.1-4.3c-0.9-1.9-2.4-3.2-3.3-2.7C72,66.6,72,68.5,73,70.5C73.9,72.4,75.4,73.7,76.3,73.2z M66,72.6
	c-1.9,0.9-3.2,2.4-2.7,3.3c0.4,0.9,2.4,0.9,4.3-0.1c1.9-0.9,3.2-2.4,2.7-3.3C69.9,71.6,68,71.7,66,72.6z M64.6,69.9
	c1,0.1,1.9-1.6,2.1-3.8c0.2-2.2-0.5-4-1.5-4c-1-0.1-1.9,1.6-2.1,3.8C62.9,68,63.6,69.8,64.6,69.9z M56,64.3c-2.2-0.2-4,0.5-4,1.5
	c-0.1,1,1.6,1.9,3.8,2.1c2.2,0.2,4-0.5,4-1.5C59.8,65.3,58.1,64.4,56,64.3z M57.1,62.4c0.9,0.4,2.3-1,3.1-3c0.8-2,0.6-3.9-0.3-4.3
	c-0.9-0.4-2.3,1-3.1,3S56.2,62,57.1,62.4z M50.6,54.5c-2-0.8-3.9-0.6-4.3,0.3c-0.4,0.9,1,2.3,3,3.1c2,0.8,3.9,0.6,4.3-0.3
	C53.9,56.6,52.6,55.3,50.6,54.5z M53.3,51.9c0.8,0.6,2.5-0.3,3.8-2c1.3-1.7,1.8-3.6,1-4.2c-0.8-0.6-2.5,0.3-3.8,2
	C53,49.4,52.5,51.3,53.3,51.9z M49.4,42.4c-1.7-1.3-3.6-1.8-4.2-1s0.3,2.5,2,3.8c1.7,1.3,3.6,1.8,4.2,1S51.1,43.7,49.4,42.4z
	 M52.1,41.3c0.3,1,2.2,1.3,4.3,0.7c2.1-0.6,3.6-1.8,3.3-2.8c-0.3-1-2.2-1.3-4.3-0.7C53.3,39.1,51.9,40.3,52.1,41.3z M54.6,31.3
	c-0.6-2.1-1.8-3.6-2.8-3.3s-1.3,2.2-0.7,4.3c0.6,2.1,1.8,3.6,2.8,3.3C54.9,35.3,55.2,33.4,54.6,31.3z M56.5,30.3
	c-0.2,1,1.2,2.2,3.3,2.7s4,0.2,4.2-0.8c0.2-1-1.2-2.2-3.3-2.7S56.7,29.3,56.5,30.3z M63.6,22.9c0.5-2.1,0.2-4-0.8-4.2
	c-1-0.2-2.2,1.2-2.7,3.3s-0.2,4,0.8,4.2C61.8,26.4,63.1,25,63.6,22.9z M65.2,24.2c-0.2,1,1.2,2.2,3.3,2.7s4,0.2,4.2-0.8
	c0.2-1-1.2-2.2-3.3-2.7S65.5,23.3,65.2,24.2z M72.4,16.8c0.5-2.1,0.2-4-0.8-4.2c-1-0.2-2.2,1.2-2.7,3.3c-0.5,2.1-0.2,4,0.8,4.2
	C70.6,20.4,71.8,18.9,72.4,16.8z M74.5,19.5c-0.2,1,1.4,2.1,3.5,2.6c2.1,0.4,4,0,4.2-1s-1.4-2.1-3.5-2.6
	C76.6,18.1,74.7,18.5,74.5,19.5z M81.3,11.7c0.4-2.1,0-4-1-4.2c-1-0.2-2.1,1.4-2.6,3.5c-0.4,2.1,0,4,1,4.2
	C79.7,15.4,80.8,13.8,81.3,11.7z M82.3,13c-0.1,1,1.6,1.9,3.7,2.1c2.2,0.2,4-0.4,4.1-1.4c0.1-1-1.6-1.9-3.7-2.1
	C84.2,11.4,82.4,12,82.3,13z M88.2,4.5c0.2-2.2-0.4-4-1.4-4.1c-1-0.1-1.9,1.6-2.1,3.7c-0.2,2.2,0.4,4,1.4,4.1
	C87,8.4,88,6.7,88.2,4.5z M89.5,6.4c0.2,1,2.1,1.4,4.2,1c2.1-0.4,3.7-1.5,3.5-2.5s-2.1-1.4-4.2-1C90.9,4.3,89.4,5.5,89.5,6.4z"/>
</svg>
