<?xml version="1.0" encoding="utf-8"?>
<!-- Generator: Adobe Illustrator 23.0.2, SVG Export Plug-In . SVG Version: 6.00 Build 0)  -->
<svg version="1.1" id="Layer_1" xmlns="http://www.w3.org/2000/svg" xmlns:xlink="http://www.w3.org/1999/xlink" x="0px" y="0px"
	 viewBox="0 0 320 79.6" style="enable-background:new 0 0 320 79.6;" xml:space="preserve">
<style type="text/css">
	.st0{fill:#E8E6E5;}
</style>
<g>
	<g>
		<path class="st0" d="M286.9,46.6c-0.3-0.3-0.4-0.6-0.4-0.9c0-0.4,0.2-0.8,0.5-1c0.3-0.3,0.7-0.4,1.1-0.4c0.4,0,0.7,0.1,1,0.4
			c0.3,0.3,0.4,0.6,0.4,0.9c0,0.4-0.1,0.8-0.4,1c-0.3,0.3-0.7,0.4-1.2,0.4C287.4,46.9,287.1,46.8,286.9,46.6z"/>
		<path class="st0" d="M291.7,39.9c0.4-0.7,0.9-1.2,1.6-1.6c0.7-0.3,1.4-0.5,2.2-0.5c1.3,0,2.4,0.4,3.1,1.2c0.7,0.8,1.1,1.9,1.1,3.3
			c0,1-0.2,1.9-0.6,2.6c-0.4,0.7-0.9,1.2-1.6,1.5c-0.7,0.3-1.4,0.5-2.2,0.5c-1.3,0-2.3-0.4-3.1-1.2c-0.7-0.8-1.1-1.9-1.1-3.3
			C291.1,41.5,291.3,40.6,291.7,39.9z M296.6,45.1c0.2-0.5,0.4-1.4,0.4-2.5c0-1.2-0.1-2.1-0.4-2.7S296,39,295.4,39
			c-1,0-1.5,1.1-1.5,3.4c0,1.2,0.1,2.1,0.4,2.7c0.3,0.6,0.7,0.9,1.2,0.9C296,45.9,296.3,45.6,296.6,45.1z"/>
		<path class="st0" d="M301.2,45.8l1-0.1v-5.9l-0.9-0.3v-1.2l2.6-0.3h0l0.4,0.3v0.4l0,1.3h0c0.1-0.2,0.2-0.5,0.5-0.8
			c0.3-0.3,0.6-0.6,1-0.8c0.4-0.2,0.8-0.4,1.3-0.4c0.3,0,0.5,0,0.6,0.1v2.7c-0.2-0.1-0.3-0.2-0.5-0.3c-0.2-0.1-0.4-0.1-0.7-0.1
			c-0.4,0-0.7,0-1,0.1c-0.3,0.1-0.5,0.2-0.7,0.3v4.9l1.7,0.2v1h-5.3V45.8z"/>
		<path class="st0" d="M309.4,50.4c-0.6-0.5-1-1.1-1-1.8c0-0.4,0.1-0.8,0.4-1.2c0.3-0.4,0.6-0.7,1.1-0.8c-0.5-0.3-0.7-0.7-0.7-1.4
			c0-0.3,0.1-0.7,0.3-1c0.2-0.3,0.5-0.6,0.9-0.7c-1.2-0.4-1.7-1.3-1.7-2.7c0-0.6,0.2-1.1,0.5-1.6c0.4-0.4,0.8-0.8,1.4-1
			c0.6-0.2,1.3-0.4,2-0.4c1.3,0,2.3,0.2,2.9,0.7c0.1-0.2,0.4-0.3,0.7-0.5c0.3-0.2,0.6-0.2,1-0.2h0.6v1.9h-1.6
			c0.1,0.3,0.2,0.6,0.2,0.9c0,1-0.3,1.7-1,2.3s-1.7,0.8-2.9,0.8c-0.5,0-0.9,0-1.3-0.1c-0.1,0.1-0.1,0.3-0.1,0.4
			c0,0.1-0.1,0.2-0.1,0.3c0,0.3,0.1,0.5,0.4,0.7c0.2,0.1,0.7,0.2,1.3,0.2h1.6c2.2,0,3.3,0.8,3.3,2.4c0,0.7-0.2,1.3-0.7,1.8
			c-0.5,0.5-1.1,0.9-1.9,1.2c-0.8,0.3-1.6,0.4-2.5,0.4C311.1,51.1,310.1,50.8,309.4,50.4z M314.4,49.4c0.4-0.3,0.6-0.7,0.6-1.3
			c0-0.4-0.1-0.8-0.3-0.9c-0.2-0.2-0.6-0.3-1.2-0.3h-1.6c-0.2,0-0.4,0-0.6,0c-0.2,0.3-0.3,0.7-0.3,1.2c0,1.2,0.6,1.8,1.9,1.8
			C313.5,49.9,313.9,49.7,314.4,49.4z M313.6,42.2c0.2-0.3,0.3-0.8,0.3-1.4c0-0.7-0.1-1.2-0.3-1.5c-0.2-0.3-0.5-0.5-1-0.5
			c-0.9,0-1.3,0.6-1.3,1.9c0,1.3,0.4,2,1.4,2C313.1,42.7,313.4,42.5,313.6,42.2z"/>
	</g>
	<g>
		<g>
			<path class="st0" d="M71.3,19.4l-3.2-0.5v-2.9h10.4L90,33.6l2.3,5V19.4l-3.5-0.5v-2.9h10.6v2.9l-3.2,0.5v27.4h-6.1L78,27.8
				l-2.7-5.5v21.3l4.4,0.5v2.7H68.1v-2.7l3.2-0.5V19.4z"/>
			<path class="st0" d="M116.4,18.5l-9.9,0.6l-2.3,5.7l-3.6-0.5l1-8.4h21.6l1,2.5l-14.6,23l-2.9,2.7l11.8-0.9l2.4-6.4l3.6,0.7
				l-0.9,9.3h-23.4L99,44.4L114,21.3L116.4,18.5z"/>
			<path class="st0" d="M143.7,19l-5.2,0.2l-1.7,9.3h-3.9l0.7-12.6h27.4l0.5,12.6h-3.7l-1.8-9.3l-5-0.2v24.6l5.8,0.5v2.7h-18.2v-2.7
				l5.3-0.5V19z"/>
			<path class="st0" d="M162.4,44.1l2.5-0.4V28.1l-2.5-0.7v-3.2l6.9-0.9h0.1l1.2,0.9v1l-0.1,3.5h0.1c0.2-0.6,0.6-1.4,1.3-2.2
				c0.7-0.8,1.6-1.6,2.6-2.2c1.1-0.6,2.2-0.9,3.5-0.9c0.7,0,1.3,0.1,1.7,0.3v7.2c-0.4-0.3-0.9-0.6-1.4-0.8c-0.5-0.2-1.2-0.3-2-0.3
				c-1,0-1.9,0.1-2.7,0.4c-0.8,0.3-1.4,0.6-1.9,0.9v12.8l4.6,0.4v2.7h-13.9V44.1z"/>
			<path class="st0" d="M183.8,34.6c2.5-1.3,5.7-2,9.8-2v-0.8c0-1-0.1-1.8-0.3-2.4c-0.2-0.6-0.6-1-1.2-1.3c-0.6-0.3-1.4-0.4-2.6-0.4
				c-1.4,0-2.6,0.2-3.6,0.5c-1.1,0.3-2.2,0.7-3.3,1.3l-1.4-3c0.4-0.4,1.2-0.8,2.2-1.3c1-0.5,2.2-1,3.6-1.3c1.4-0.4,2.9-0.6,4.4-0.6
				c2.2,0,4,0.3,5.2,0.9c1.3,0.6,2.2,1.5,2.7,2.7c0.5,1.2,0.8,2.9,0.8,5v12.3h2.2v2.6c-0.6,0.1-1.5,0.3-2.7,0.4
				c-1.1,0.1-2.1,0.2-2.9,0.2c-1.1,0-1.8-0.2-2.1-0.5c-0.3-0.3-0.5-0.9-0.5-1.8v-1c-0.7,0.8-1.6,1.6-2.8,2.2c-1.2,0.7-2.5,1-4,1
				c-1.3,0-2.5-0.3-3.6-0.9c-1.1-0.6-1.9-1.4-2.5-2.5c-0.6-1.1-0.9-2.3-0.9-3.8C180.1,37.7,181.3,35.9,183.8,34.6z M192,43
				c0.6-0.3,1.1-0.6,1.6-1.1v-6.6c-2.2,0-3.8,0.4-4.8,1.2c-1,0.8-1.6,1.8-1.6,3c0,1.2,0.3,2.2,0.8,2.9c0.6,0.7,1.3,1,2.3,1
				C190.9,43.5,191.4,43.3,192,43z"/>
			<path class="st0" d="M203.7,28.9c1-1.9,2.4-3.3,4.2-4.3c1.8-1,3.9-1.5,6.2-1.5c1.2,0,2.2,0.1,3,0.2c0.8,0.2,1.7,0.4,2.6,0.6
				c0.8,0.2,1.3,0.3,1.5,0.4l-0.3,7.5h-4.2l-1.1-4.8c-0.1-0.4-0.3-0.6-0.7-0.8c-0.4-0.2-0.8-0.2-1.4-0.2c-1.3,0-2.3,0.6-3.1,1.9
				c-0.7,1.3-1.1,3.4-1.1,6.4c0,2.8,0.5,5,1.4,6.5c0.9,1.5,2.2,2.3,3.8,2.3c2.1,0,3.9-0.5,5.7-1.6l1.1,2.5c-0.7,0.7-1.8,1.5-3.3,2.2
				c-1.5,0.7-3.2,1.1-5.1,1.1c-3.6,0-6.3-1.1-8.1-3.2c-1.8-2.1-2.7-5-2.7-8.6C202.2,33,202.7,30.8,203.7,28.9z"/>
			<path class="st0" d="M224.6,16.8l-2.8-0.5v-2.5l8.3-1h0.1l1.2,0.9V33l-0.1,2l7.8-8.2l-3.1-0.5v-2.6h11.3v2.6l-3.4,0.5l-4.5,4.3
				l6.9,12.5l2.2,0.4v2.7h-11.6v-2.7l1.9-0.4l-4.1-8.2l-3.4,3.5l0.1,2.1v2.6l2.4,0.4v2.7h-11.4v-2.7l2.3-0.4V16.8z"/>
			<path class="st0" d="M250.3,44.1c-1.8-2.1-2.7-5.1-2.7-8.8c0-2.5,0.5-4.7,1.4-6.5c0.9-1.8,2.3-3.2,4-4.2s3.7-1.4,6-1.4
				c2.9,0,5.1,0.7,6.7,2.2c1.5,1.5,2.3,3.5,2.4,6.2c0,1.8-0.1,3.2-0.4,4.3h-13c0.1,2.4,0.7,4.2,1.7,5.4c1,1.2,2.4,1.8,4.3,1.8
				c1,0,2.1-0.2,3.2-0.5c1.1-0.3,2-0.7,2.7-1.2l1.2,2.5c-0.7,0.8-1.9,1.6-3.7,2.3c-1.7,0.7-3.5,1.1-5.3,1.1
				C254.9,47.3,252.1,46.2,250.3,44.1z M261.4,33.1l0-1.7c0-1.7-0.2-3.1-0.7-4c-0.5-0.9-1.3-1.4-2.4-1.4c-1.2,0-2.1,0.5-2.7,1.5
				c-0.6,1-1,2.9-1,5.6H261.4z"/>
			<path class="st0" d="M269.4,44.1l2.5-0.4V28.1l-2.5-0.7v-3.2l6.9-0.9h0.1l1.2,0.9v1l-0.1,3.5h0.1c0.2-0.6,0.6-1.4,1.3-2.2
				c0.7-0.8,1.6-1.6,2.6-2.2c1.1-0.6,2.2-0.9,3.5-0.9c0.7,0,1.3,0.1,1.7,0.3v7.2c-0.4-0.3-0.9-0.6-1.4-0.8c-0.5-0.2-1.2-0.3-2-0.3
				c-1,0-1.9,0.1-2.7,0.4c-0.8,0.3-1.4,0.6-1.9,0.9v12.8l4.6,0.4v2.7h-13.9V44.1z"/>
		</g>
	</g>
	<g>
		<path class="st0" d="M79.2,59.6l-1.3,9.2h-1.2l1.3-9.2H79.2z"/>
		<path class="st0" d="M87.8,58.9l-1.4,9.8h-1.1l0-1.2c-0.3,0.4-0.6,0.7-0.9,1c-0.4,0.2-0.8,0.3-1.2,0.3c-0.7,0-1.3-0.2-1.6-0.7
			c-0.4-0.5-0.6-1.2-0.6-2c0-0.7,0.1-1.4,0.3-2.1c0.2-0.7,0.6-1.3,1.1-1.8c0.5-0.5,1.1-0.7,1.8-0.7c0.7,0,1.3,0.3,1.8,0.9l0.5-3.7
			L87.8,58.9z M83.2,63.1c-0.3,0.4-0.6,0.9-0.7,1.4c-0.1,0.6-0.2,1.1-0.2,1.7c0,0.6,0.1,1,0.3,1.3c0.2,0.3,0.5,0.4,0.9,0.4
			c0.4,0,0.8-0.1,1.1-0.4c0.3-0.3,0.6-0.7,1-1.2l0.4-2.9c-0.2-0.3-0.4-0.5-0.6-0.6c-0.2-0.1-0.5-0.2-0.8-0.2
			C84,62.5,83.6,62.7,83.2,63.1z"/>
		<path class="st0" d="M94.1,65.3c-0.8,0.4-1.9,0.7-3.3,0.8c0,1.2,0.5,1.7,1.5,1.7c0.3,0,0.6-0.1,0.9-0.2c0.3-0.1,0.6-0.3,0.9-0.5
			l0.5,0.8c-0.8,0.6-1.6,0.9-2.5,0.9c-0.9,0-1.5-0.3-2-0.8c-0.5-0.5-0.7-1.2-0.7-2.1c0-0.7,0.1-1.4,0.4-2.1c0.2-0.7,0.6-1.3,1.2-1.7
			c0.5-0.5,1.2-0.7,2.1-0.7c0.7,0,1.3,0.2,1.6,0.5c0.4,0.3,0.6,0.8,0.6,1.3C95.3,64.2,94.9,64.9,94.1,65.3z M93.3,64.6
			c0.5-0.3,0.8-0.7,0.8-1.2c0-0.2-0.1-0.4-0.2-0.6c-0.2-0.2-0.4-0.3-0.7-0.3c-0.7,0-1.2,0.3-1.6,0.8c-0.4,0.5-0.6,1.1-0.7,1.9
			C91.9,65.1,92.7,64.9,93.3,64.6z"/>
		<path class="st0" d="M102.7,62c0.3,0.3,0.4,0.7,0.4,1.3c0,0.1,0,0.3,0,0.5l-0.7,4.9h-1.2l0.7-4.9c0-0.2,0-0.3,0-0.4
			c0-0.3-0.1-0.5-0.2-0.7c-0.1-0.1-0.3-0.2-0.6-0.2c-0.4,0-0.8,0.2-1.2,0.5c-0.4,0.4-0.7,0.8-1,1.4l-0.6,4.2h-1.2l1-7h1L99,63.1
			c0.3-0.5,0.7-0.9,1.1-1.1c0.4-0.3,0.8-0.4,1.3-0.4C102,61.6,102.4,61.7,102.7,62z"/>
		<path class="st0" d="M107,66.9c0,0.2,0,0.3,0,0.3c0,0.2,0.1,0.4,0.2,0.5c0.1,0.1,0.3,0.2,0.5,0.2c0.2,0,0.3,0,0.5-0.1
			c0.2,0,0.3-0.1,0.5-0.2l0.4,0.9c-0.5,0.3-1,0.5-1.6,0.5c-0.5,0-1-0.1-1.2-0.4c-0.3-0.3-0.4-0.7-0.4-1.2c0-0.2,0-0.3,0-0.4l0.6-4.2
			h-1.2l0.1-0.9h1.3l0.4-1.6l1-0.1l-0.2,1.7h1.6l-0.3,0.9h-1.5L107,66.9z"/>
		<path class="st0" d="M113,61.7l-1,7h-1.2l1-7H113z M112.2,59.8c-0.1-0.1-0.2-0.3-0.2-0.5c0-0.3,0.1-0.5,0.3-0.6
			c0.2-0.2,0.4-0.3,0.7-0.3c0.2,0,0.4,0.1,0.6,0.2c0.1,0.1,0.2,0.3,0.2,0.5c0,0.3-0.1,0.5-0.3,0.6c-0.2,0.2-0.4,0.3-0.7,0.3
			C112.5,60,112.3,59.9,112.2,59.8z"/>
		<path class="st0" d="M118,60c-0.2,0.2-0.3,0.4-0.4,0.8l-0.1,0.9h1.7l-0.3,0.9h-1.6l-0.8,5.7c-0.1,0.6-0.2,1.2-0.4,1.5
			c-0.2,0.4-0.5,0.7-0.8,0.9c-0.3,0.2-0.8,0.5-1.4,0.7l-0.3-0.9c0.4-0.2,0.7-0.3,0.9-0.5c0.2-0.2,0.4-0.4,0.5-0.7
			c0.1-0.3,0.3-0.7,0.3-1.1l0.8-5.7h-1.2l0.1-0.9h1.2l0.1-1c0.1-0.6,0.3-1.1,0.7-1.4c0.4-0.4,1-0.5,1.6-0.5c0.3,0,0.6,0,0.9,0.1
			s0.5,0.2,0.8,0.4l-0.5,0.8c-0.3-0.2-0.7-0.3-1.1-0.3C118.5,59.7,118.2,59.8,118,60z"/>
		<path class="st0" d="M123.1,68.8c-0.4,0.8-0.8,1.4-1.4,1.9c-0.6,0.5-1.3,0.8-2.2,0.9l-0.1-1c0.5-0.1,0.9-0.2,1.2-0.3
			c0.3-0.2,0.5-0.3,0.8-0.6c0.2-0.2,0.4-0.6,0.6-1h-0.5l-1.3-7h1.3l1,6.1l2.7-6.1h1.3L123.1,68.8z"/>
		<path class="st0" d="M137.9,68.7h-1.6l-2.6-8.1c0,1.1-0.1,2.4-0.3,3.9l-0.6,4.2h-1.2l1.3-9.2h1.6l2.6,8.1c0-0.6,0-1.1,0-1.6
			c0-0.5,0.1-1,0.2-1.5l0.7-5h1.2L137.9,68.7z"/>
		<path class="st0" d="M145.7,65.3c-0.8,0.4-1.9,0.7-3.3,0.8c0,1.2,0.5,1.7,1.5,1.7c0.3,0,0.6-0.1,0.9-0.2c0.3-0.1,0.6-0.3,0.9-0.5
			l0.5,0.8c-0.8,0.6-1.6,0.9-2.5,0.9c-0.9,0-1.5-0.3-2-0.8c-0.5-0.5-0.7-1.2-0.7-2.1c0-0.7,0.1-1.4,0.4-2.1c0.2-0.7,0.6-1.3,1.2-1.7
			c0.5-0.5,1.2-0.7,2.1-0.7c0.7,0,1.3,0.2,1.6,0.5c0.4,0.3,0.6,0.8,0.6,1.3C146.9,64.2,146.5,64.9,145.7,65.3z M144.8,64.6
			c0.5-0.3,0.8-0.7,0.8-1.2c0-0.2-0.1-0.4-0.2-0.6c-0.2-0.2-0.4-0.3-0.7-0.3c-0.7,0-1.2,0.3-1.6,0.8c-0.4,0.5-0.6,1.1-0.7,1.9
			C143.5,65.1,144.3,64.9,144.8,64.6z"/>
		<path class="st0" d="M157.6,61.7l-2.5,7h-1.7l-0.4-5.9l-2.1,5.9h-1.6l-0.6-7h1.2l0.4,6.2l2.2-6.2h1.4l0.4,6.2l2.1-6.2H157.6z"/>
		<path class="st0" d="M162,68.7l0.1-1l5.5-7.1h-4l0.1-1.1h5.4l-0.1,1l-5.5,7.1l4.5,0l-0.3,1.1H162z"/>
		<path class="st0" d="M174.6,65.3c-0.8,0.4-1.9,0.7-3.3,0.8c0,1.2,0.5,1.7,1.5,1.7c0.3,0,0.6-0.1,0.9-0.2c0.3-0.1,0.6-0.3,0.9-0.5
			l0.5,0.8c-0.8,0.6-1.6,0.9-2.5,0.9c-0.9,0-1.5-0.3-2-0.8c-0.5-0.5-0.7-1.2-0.7-2.1c0-0.7,0.1-1.4,0.4-2.1c0.2-0.7,0.6-1.3,1.2-1.7
			c0.5-0.5,1.2-0.7,2.1-0.7c0.7,0,1.3,0.2,1.6,0.5c0.4,0.3,0.6,0.8,0.6,1.3C175.8,64.2,175.4,64.9,174.6,65.3z M173.8,64.6
			c0.5-0.3,0.8-0.7,0.8-1.2c0-0.2-0.1-0.4-0.2-0.6c-0.2-0.2-0.4-0.3-0.7-0.3c-0.7,0-1.2,0.3-1.6,0.8c-0.4,0.5-0.6,1.1-0.7,1.9
			C172.5,65.1,173.3,64.9,173.8,64.6z"/>
		<path class="st0" d="M182.4,61.7c0.4,0.1,0.8,0.2,1.2,0.5l-0.7,5c0,0.1,0,0.2,0,0.3c0,0.2,0,0.3,0.1,0.4c0.1,0.1,0.2,0.2,0.4,0.2
			l-0.3,0.8c-0.4,0-0.7-0.2-0.9-0.3c-0.2-0.2-0.3-0.5-0.4-0.8c-0.3,0.4-0.6,0.6-1,0.9c-0.4,0.2-0.7,0.3-1.1,0.3
			c-0.7,0-1.3-0.2-1.6-0.7c-0.4-0.5-0.6-1.1-0.6-2c0-0.7,0.1-1.4,0.4-2.1c0.3-0.7,0.7-1.3,1.2-1.8c0.6-0.5,1.3-0.7,2.1-0.7
			C181.6,61.6,182,61.6,182.4,61.7z M179.8,63.1c-0.4,0.4-0.6,0.8-0.8,1.4c-0.2,0.6-0.3,1.1-0.3,1.7c0,0.6,0.1,1,0.3,1.3
			c0.2,0.3,0.5,0.4,0.9,0.4c0.4,0,0.7-0.1,1-0.3c0.3-0.2,0.6-0.5,0.9-1l0.5-3.9c-0.2-0.1-0.4-0.1-0.5-0.2c-0.2,0-0.4-0.1-0.6-0.1
			C180.7,62.5,180.2,62.7,179.8,63.1z"/>
		<path class="st0" d="M187.1,67.4c0,0,0,0.1,0,0.2c0,0.1,0,0.2,0.1,0.3c0.1,0.1,0.1,0.1,0.3,0.1c0.1,0,0.3,0,0.5-0.1l0.3,0.9
			c-0.3,0.2-0.7,0.2-1,0.2c-0.4,0-0.7-0.1-1-0.3c-0.2-0.2-0.3-0.5-0.3-1c0-0.1,0-0.2,0-0.4l1.2-8.2l1.2-0.1L187.1,67.4z"/>
		<path class="st0" d="M195.1,61.7c0.4,0.1,0.8,0.2,1.2,0.5l-0.7,5c0,0.1,0,0.2,0,0.3c0,0.2,0,0.3,0.1,0.4c0.1,0.1,0.2,0.2,0.4,0.2
			l-0.3,0.8c-0.4,0-0.7-0.2-0.9-0.3c-0.2-0.2-0.3-0.5-0.4-0.8c-0.3,0.4-0.6,0.6-1,0.9c-0.4,0.2-0.7,0.3-1.1,0.3
			c-0.7,0-1.3-0.2-1.6-0.7c-0.4-0.5-0.6-1.1-0.6-2c0-0.7,0.1-1.4,0.4-2.1c0.3-0.7,0.7-1.3,1.2-1.8c0.6-0.5,1.3-0.7,2.1-0.7
			C194.3,61.6,194.7,61.6,195.1,61.7z M192.5,63.1c-0.4,0.4-0.6,0.8-0.8,1.4c-0.2,0.6-0.3,1.1-0.3,1.7c0,0.6,0.1,1,0.3,1.3
			c0.2,0.3,0.5,0.4,0.9,0.4c0.4,0,0.7-0.1,1-0.3c0.3-0.2,0.6-0.5,0.9-1l0.5-3.9c-0.2-0.1-0.4-0.1-0.5-0.2c-0.2,0-0.4-0.1-0.6-0.1
			C193.3,62.5,192.8,62.7,192.5,63.1z"/>
		<path class="st0" d="M204,62c0.3,0.3,0.4,0.7,0.4,1.3c0,0.1,0,0.3,0,0.5l-0.7,4.9h-1.2l0.7-4.9c0-0.2,0-0.3,0-0.4
			c0-0.3-0.1-0.5-0.2-0.7c-0.1-0.1-0.3-0.2-0.6-0.2c-0.4,0-0.8,0.2-1.2,0.5c-0.4,0.4-0.7,0.8-1,1.4l-0.6,4.2h-1.2l1-7h1l-0.1,1.4
			c0.3-0.5,0.7-0.9,1.1-1.1c0.4-0.3,0.8-0.4,1.3-0.4C203.3,61.6,203.7,61.7,204,62z"/>
		<path class="st0" d="M213.5,58.9l-1.4,9.8H211l0-1.2c-0.3,0.4-0.6,0.7-0.9,1c-0.4,0.2-0.8,0.3-1.2,0.3c-0.7,0-1.3-0.2-1.6-0.7
			c-0.4-0.5-0.6-1.2-0.6-2c0-0.7,0.1-1.4,0.3-2.1c0.2-0.7,0.6-1.3,1.1-1.8c0.5-0.5,1.1-0.7,1.8-0.7c0.7,0,1.3,0.3,1.8,0.9l0.5-3.7
			L213.5,58.9z M208.9,63.1c-0.3,0.4-0.6,0.9-0.7,1.4c-0.1,0.6-0.2,1.1-0.2,1.7c0,0.6,0.1,1,0.3,1.3c0.2,0.3,0.5,0.4,0.9,0.4
			c0.4,0,0.8-0.1,1.1-0.4c0.3-0.3,0.6-0.7,1-1.2l0.4-2.9c-0.2-0.3-0.4-0.5-0.6-0.6c-0.2-0.1-0.5-0.2-0.8-0.2
			C209.7,62.5,209.2,62.7,208.9,63.1z"/>
		<path class="st0" d="M224.2,61.7c0.4,0.1,0.8,0.2,1.2,0.5l-0.7,5c0,0.1,0,0.2,0,0.3c0,0.2,0,0.3,0.1,0.4c0.1,0.1,0.2,0.2,0.4,0.2
			l-0.3,0.8c-0.4,0-0.7-0.2-0.9-0.3c-0.2-0.2-0.3-0.5-0.4-0.8c-0.3,0.4-0.6,0.6-1,0.9c-0.4,0.2-0.7,0.3-1.1,0.3
			c-0.7,0-1.3-0.2-1.6-0.7c-0.4-0.5-0.6-1.1-0.6-2c0-0.7,0.1-1.4,0.4-2.1c0.3-0.7,0.7-1.3,1.2-1.8c0.6-0.5,1.3-0.7,2.1-0.7
			C223.4,61.6,223.8,61.6,224.2,61.7z M221.6,63.1c-0.4,0.4-0.6,0.8-0.8,1.4c-0.2,0.6-0.3,1.1-0.3,1.7c0,0.6,0.1,1,0.3,1.3
			c0.2,0.3,0.5,0.4,0.9,0.4c0.4,0,0.7-0.1,1-0.3c0.3-0.2,0.6-0.5,0.9-1l0.5-3.9c-0.2-0.1-0.4-0.1-0.5-0.2c-0.2,0-0.4-0.1-0.6-0.1
			C222.5,62.5,222,62.7,221.6,63.1z"/>
		<path class="st0" d="M233.1,62c0.3,0.3,0.4,0.7,0.4,1.3c0,0.1,0,0.3,0,0.5l-0.7,4.9h-1.2l0.7-4.9c0-0.2,0-0.3,0-0.4
			c0-0.3-0.1-0.5-0.2-0.7c-0.1-0.1-0.3-0.2-0.6-0.2c-0.4,0-0.8,0.2-1.2,0.5c-0.4,0.4-0.7,0.8-1,1.4l-0.6,4.2h-1.2l1-7h1l-0.1,1.4
			c0.3-0.5,0.7-0.9,1.1-1.1c0.4-0.3,0.8-0.4,1.3-0.4C232.4,61.6,232.8,61.7,233.1,62z"/>
		<path class="st0" d="M238.1,61.7l-1,7H236l1-7H238.1z M237.3,59.8c-0.1-0.1-0.2-0.3-0.2-0.5c0-0.3,0.1-0.5,0.3-0.6
			c0.2-0.2,0.4-0.3,0.7-0.3c0.2,0,0.4,0.1,0.6,0.2c0.1,0.1,0.2,0.3,0.2,0.5c0,0.3-0.1,0.5-0.3,0.6c-0.2,0.2-0.4,0.3-0.7,0.3
			C237.6,60,237.4,59.9,237.3,59.8z"/>
		<path class="st0" d="M249.5,62c0.3,0.3,0.4,0.7,0.4,1.3c0,0.2,0,0.3,0,0.4l-0.7,5h-1.2l0.7-4.9c0-0.1,0-0.2,0-0.4
			c0-0.3-0.1-0.5-0.2-0.7c-0.1-0.1-0.3-0.2-0.6-0.2c-0.3,0-0.7,0.2-1,0.5c-0.3,0.3-0.7,0.8-1,1.4l-0.6,4.2h-1.2l0.7-4.9
			c0-0.1,0-0.2,0-0.4c0-0.3-0.1-0.5-0.2-0.7c-0.1-0.1-0.3-0.2-0.6-0.2c-0.3,0-0.7,0.2-1,0.5c-0.3,0.4-0.7,0.8-1,1.4l-0.6,4.2h-1.2
			l1-7h1l-0.1,1.3c0.3-0.5,0.7-0.9,1.1-1.1c0.4-0.3,0.8-0.4,1.2-0.4c0.4,0,0.7,0.1,1,0.4c0.3,0.2,0.5,0.6,0.5,1
			c0.4-0.5,0.7-0.8,1.1-1.1c0.4-0.2,0.8-0.4,1.2-0.4C248.8,61.6,249.2,61.7,249.5,62z"/>
		<path class="st0" d="M257.1,61.7c0.4,0.1,0.8,0.2,1.2,0.5l-0.7,5c0,0.1,0,0.2,0,0.3c0,0.2,0,0.3,0.1,0.4c0.1,0.1,0.2,0.2,0.4,0.2
			l-0.3,0.8c-0.4,0-0.7-0.2-0.9-0.3c-0.2-0.2-0.3-0.5-0.4-0.8c-0.3,0.4-0.6,0.6-1,0.9c-0.4,0.2-0.7,0.3-1.1,0.3
			c-0.7,0-1.3-0.2-1.6-0.7c-0.4-0.5-0.6-1.1-0.6-2c0-0.7,0.1-1.4,0.4-2.1c0.3-0.7,0.7-1.3,1.2-1.8c0.6-0.5,1.3-0.7,2.1-0.7
			C256.3,61.6,256.7,61.6,257.1,61.7z M254.5,63.1c-0.4,0.4-0.6,0.8-0.8,1.4c-0.2,0.6-0.3,1.1-0.3,1.7c0,0.6,0.1,1,0.3,1.3
			c0.2,0.3,0.5,0.4,0.9,0.4c0.4,0,0.7-0.1,1-0.3c0.3-0.2,0.6-0.5,0.9-1l0.5-3.9c-0.2-0.1-0.4-0.1-0.5-0.2c-0.2,0-0.4-0.1-0.6-0.1
			C255.4,62.5,254.9,62.7,254.5,63.1z"/>
		<path class="st0" d="M261.8,67.4c0,0,0,0.1,0,0.2c0,0.1,0,0.2,0.1,0.3c0.1,0.1,0.1,0.1,0.3,0.1c0.1,0,0.3,0,0.5-0.1l0.3,0.9
			c-0.3,0.2-0.7,0.2-1,0.2c-0.4,0-0.7-0.1-1-0.3c-0.2-0.2-0.3-0.5-0.3-1c0-0.1,0-0.2,0-0.4l1.2-8.2l1.2-0.1L261.8,67.4z"/>
		<path class="st0" d="M274.1,62.4l-0.6,0.7c-0.5-0.4-1.1-0.6-1.7-0.6c-0.4,0-0.8,0.1-1,0.3c-0.3,0.2-0.4,0.4-0.4,0.7
			c0,0.3,0.1,0.5,0.3,0.6c0.2,0.1,0.6,0.3,1.1,0.5c0.7,0.2,1.2,0.5,1.5,0.8c0.3,0.3,0.5,0.8,0.5,1.3c0,0.5-0.1,0.9-0.4,1.2
			c-0.3,0.3-0.6,0.6-1.1,0.8c-0.4,0.2-0.9,0.2-1.4,0.2c-1,0-1.9-0.3-2.6-1l0.7-0.7c0.6,0.5,1.2,0.7,2,0.7c0.6,0,1-0.1,1.2-0.4
			s0.4-0.5,0.4-0.8c0-0.2,0-0.4-0.1-0.6c-0.1-0.1-0.2-0.3-0.4-0.4c-0.2-0.1-0.5-0.2-0.9-0.3c-0.7-0.2-1.2-0.5-1.4-0.8
			c-0.3-0.3-0.4-0.7-0.4-1.2c0-0.3,0.1-0.6,0.3-1c0.2-0.3,0.5-0.6,0.9-0.8c0.4-0.2,0.9-0.3,1.5-0.3
			C272.7,61.6,273.5,61.8,274.1,62.4z"/>
		<path class="st0" d="M278.1,61.7l-1,7h-1.2l1-7H278.1z M277.2,59.8c-0.1-0.1-0.2-0.3-0.2-0.5c0-0.3,0.1-0.5,0.3-0.6
			c0.2-0.2,0.4-0.3,0.7-0.3c0.2,0,0.4,0.1,0.6,0.2c0.1,0.1,0.2,0.3,0.2,0.5c0,0.3-0.1,0.5-0.3,0.6c-0.2,0.2-0.4,0.3-0.7,0.3
			C277.5,60,277.3,59.9,277.2,59.8z"/>
		<path class="st0" d="M285.2,61.7c0.4,0.1,0.8,0.2,1.2,0.5l-1,6.4c-0.2,1.1-0.5,1.8-1.1,2.3c-0.5,0.5-1.3,0.7-2.1,0.7
			c-0.4,0-0.8-0.1-1.3-0.2c-0.4-0.1-0.8-0.3-1.1-0.5l0.5-0.9c0.3,0.2,0.6,0.3,0.9,0.4c0.3,0.1,0.7,0.2,1,0.2c0.6,0,1-0.1,1.4-0.4
			c0.4-0.3,0.6-0.8,0.7-1.6l0.1-0.9c-0.3,0.3-0.6,0.6-0.9,0.8c-0.3,0.2-0.7,0.3-1.1,0.3c-0.7,0-1.2-0.2-1.6-0.7
			c-0.4-0.5-0.6-1.1-0.6-1.9c0-0.8,0.1-1.5,0.4-2.2c0.3-0.7,0.7-1.3,1.2-1.7c0.6-0.4,1.3-0.7,2.2-0.7
			C284.4,61.6,284.8,61.6,285.2,61.7z M282.5,63c-0.4,0.3-0.7,0.8-0.8,1.3c-0.2,0.5-0.3,1.1-0.3,1.7c0,0.6,0.1,1,0.3,1.2
			c0.2,0.3,0.5,0.4,0.9,0.4c0.4,0,0.7-0.1,1-0.3c0.3-0.2,0.6-0.6,0.9-1l0.6-3.7c-0.2-0.1-0.4-0.1-0.6-0.2c-0.2,0-0.4-0.1-0.6-0.1
			C283.4,62.5,282.9,62.7,282.5,63z"/>
		<path class="st0" d="M294.2,62c0.3,0.3,0.4,0.7,0.4,1.3c0,0.1,0,0.3,0,0.5l-0.7,4.9h-1.2l0.7-4.9c0-0.2,0-0.3,0-0.4
			c0-0.3-0.1-0.5-0.2-0.7c-0.1-0.1-0.3-0.2-0.6-0.2c-0.4,0-0.8,0.2-1.2,0.5c-0.4,0.4-0.7,0.8-1,1.4l-0.6,4.2h-1.2l1-7h1l-0.1,1.4
			c0.3-0.5,0.7-0.9,1.1-1.1c0.4-0.3,0.8-0.4,1.3-0.4C293.5,61.6,293.9,61.7,294.2,62z"/>
	</g>
	<g>
		<path class="st0" d="M30.2,24.6c-2.2,0-3.9,2.7-3.9,6.1c0,3.4,1.8,6.1,3.9,6.1c2.2,0,3.9-2.7,3.9-6.1
			C34.2,27.4,32.4,24.6,30.2,24.6z"/>
		<path class="st0" d="M42.3,39.4c1.7-2.9,1.5-6.2-0.4-7.3c-1.9-1.1-4.8,0.4-6.5,3.3c-1.7,2.9-1.5,6.2,0.4,7.3
			C37.7,43.9,40.6,42.4,42.3,39.4z"/>
		<path class="st0" d="M18.7,32.2c-1.9,1.1-2,4.3-0.4,7.3c1.7,2.9,4.6,4.4,6.5,3.3c1.9-1.1,2-4.3,0.4-7.3
			C23.5,32.6,20.6,31.1,18.7,32.2z"/>
	</g>
	<g>
		<path class="st0" d="M25.6,59.9c-5-1-9.5-3.6-12.9-7.4c-1.1-1.2-2-2.4-2.8-3.8c-0.6-1-1.9-1.4-3-0.7c-1,0.6-1.4,1.9-0.7,3
			c0.9,1.6,2.1,3.1,3.3,4.4c4.1,4.5,9.3,7.5,15.2,8.7c0.1,0,0.3,0,0.4,0c1,0,1.9-0.7,2.1-1.7C27.5,61.2,26.7,60.1,25.6,59.9z"/>
		<path class="st0" d="M6.6,39c-0.1-0.9-0.1-1.7-0.1-2.6c0-5.8,2.1-11.4,5.9-15.8c0.8-0.9,0.7-2.3-0.2-3c-0.9-0.8-2.3-0.7-3,0.2
			c-4.5,5.1-6.9,11.7-6.9,18.6c0,1,0.1,2.1,0.2,3.1c0.1,1.1,1.1,1.9,2.1,1.9c0.1,0,0.2,0,0.2,0C5.9,41.2,6.7,40.2,6.6,39z"/>
		<path class="st0" d="M54.5,36.3c0,0.7,0,1.4-0.1,2.1c-0.1,1.2,0.8,2.2,2,2.3c0.1,0,0.1,0,0.2,0c1.1,0,2-0.8,2.1-2
			c0.1-0.8,0.1-1.7,0.1-2.5c0-7-2.6-13.8-7.3-19c0,0-0.1-0.1-0.1-0.1c-0.8-0.9-2.1-0.9-3-0.1c-0.9,0.8-0.9,2.2-0.1,3.1
			C52.3,24.7,54.5,30.4,54.5,36.3z"/>
		<path class="st0" d="M42.7,13.1c0.5-1.1,0-2.4-1.1-2.8C38,8.8,34.3,8,30.4,8c-4.1,0-8,0.8-11.7,2.5c-1.1,0.5-1.6,1.8-1.1,2.9
			c0.4,0.8,1.1,1.3,2,1.3c0.3,0,0.6-0.1,0.9-0.2c3.1-1.4,6.4-2.1,9.9-2.1c3.2,0,6.4,0.6,9.4,1.9C40.9,14.7,42.2,14.2,42.7,13.1z"/>
		<path class="st0" d="M58.6,66l-8.9-8.9c2.1-2,3.9-4.2,5.3-6.7c0.6-1,0.2-2.4-0.8-2.9c-1-0.6-2.4-0.2-2.9,0.8
			c-1.3,2.2-2.8,4.2-4.7,5.9c-3,2.8-6.8,4.7-10.7,5.6c-1.2,0.3-1.9,1.4-1.6,2.6c0.2,1,1.1,1.7,2.1,1.7c0.2,0,0.3,0,0.5-0.1
			c3-0.7,5.8-1.8,8.4-3.4l9.5,9.5c0.5,0.5,1.3,0.8,2,0.8c0.7,0,1.4-0.3,2-0.8C59.7,68.9,59.7,67.1,58.6,66z"/>
	</g>
</g>
</svg>
