<?xml version="1.0" encoding="utf-8"?>
<!-- Generator: Adobe Illustrator 23.0.2, SVG Export Plug-In . SVG Version: 6.00 Build 0)  -->
<svg version="1.1" id="Layer_1" xmlns="http://www.w3.org/2000/svg" xmlns:xlink="http://www.w3.org/1999/xlink" x="0px" y="0px"
	 viewBox="0 0 320 80" style="enable-background:new 0 0 320 80;" xml:space="preserve">
<style type="text/css">
	.st0{fill:none;stroke:#E8E6E5;stroke-width:7;stroke-linecap:round;stroke-linejoin:round;stroke-miterlimit:10;}
	.st1{fill:#E8E6E5;}
</style>
<symbol  id="CNR" viewBox="-11.4 -11.4 22.9 22.9">
	<polyline class="st0" points="-7.9,-7.9 -7.9,7.9 7.9,7.9 	"/>
</symbol>
<g>
	<g>
		<g>
			<path class="st1" d="M63.4,21.7l-3-0.5v-2.6h20.8l0.4,6.9h-3.3l-1.5-4L69.8,21v10.2l4.8-0.1l0.7-3.3H78v9.9h-2.6l-0.8-3.4
				l-4.8-0.1v9.1l5.7,0.4v2.4H60.7v-2.4l2.8-0.4V21.7z"/>
			<path class="st1" d="M85.5,29.9c0.9-1.6,2.2-2.9,3.8-3.7c1.6-0.8,3.3-1.2,5.2-1.2c3.1,0,5.5,0.9,7.3,2.8c1.8,1.9,2.6,4.5,2.6,7.8
				c0,2.4-0.5,4.5-1.4,6.1c-0.9,1.6-2.2,2.8-3.8,3.6c-1.6,0.8-3.3,1.2-5.3,1.2c-3.1,0-5.5-0.9-7.3-2.8c-1.8-1.9-2.6-4.5-2.6-7.8
				C84.1,33.5,84.6,31.5,85.5,29.9z M97,42c0.6-1.3,0.9-3.3,0.9-6c0-2.9-0.3-5-0.8-6.4c-0.6-1.4-1.5-2.1-2.8-2.1
				c-2.4,0-3.6,2.6-3.6,7.9c0,2.9,0.3,5,0.9,6.4c0.6,1.4,1.5,2.1,2.8,2.1C95.6,43.9,96.4,43.2,97,42z"/>
			<path class="st1" d="M109.3,29.9c0.9-1.6,2.2-2.9,3.8-3.7c1.6-0.8,3.3-1.2,5.2-1.2c3.1,0,5.5,0.9,7.3,2.8
				c1.8,1.9,2.6,4.5,2.6,7.8c0,2.4-0.5,4.5-1.4,6.1c-0.9,1.6-2.2,2.8-3.8,3.6c-1.6,0.8-3.3,1.2-5.3,1.2c-3.1,0-5.5-0.9-7.3-2.8
				c-1.8-1.9-2.6-4.5-2.6-7.8C107.8,33.5,108.3,31.5,109.3,29.9z M120.8,42c0.6-1.3,0.9-3.3,0.9-6c0-2.9-0.3-5-0.8-6.4
				c-0.6-1.4-1.5-2.1-2.8-2.1c-2.4,0-3.6,2.6-3.6,7.9c0,2.9,0.3,5,0.9,6.4c0.6,1.4,1.5,2.1,2.8,2.1C119.3,43.9,120.2,43.2,120.8,42z
				"/>
			<path class="st1" d="M134.1,45.3c-0.8-0.8-1.2-1.9-1.2-3.5V28.6h-2.3v-2.1l0.7-0.3c0.6-0.2,1.1-0.4,1.6-0.6
				c0.5-0.5,0.9-1.1,1.2-1.8c0.4-0.9,0.8-2.1,1.2-3.7h3.4l0.2,5.6h5.3v3.1h-5.2v9.8c0,1.4,0,2.3,0.1,2.8c0.1,0.5,0.2,0.9,0.4,1.1
				c0.2,0.2,0.6,0.2,1.2,0.2c1.2,0,2.3-0.2,3.3-0.6l0.8,2.3c-0.7,0.6-1.7,1.1-3.1,1.5c-1.4,0.4-2.7,0.6-4.1,0.6
				C136.1,46.4,134.9,46,134.1,45.3z"/>
			<path class="st1" d="M166.2,40.8c-0.9,1.7-2.1,3.1-3.8,4.1c-1.7,1-3.7,1.6-6,1.6c-0.4,0-0.8,0-1.3-0.1c-0.5-0.1-0.8-0.2-1.1-0.3
				l0.1,3v3.1l3.2,0.5V55H146v-2.3l2.3-0.5V29.4l-2.3-0.7v-2.9l6.6-0.8h0.1l1,0.8v2c0.6-0.8,1.4-1.4,2.4-2c1-0.6,2.1-0.8,3.3-0.8
				c2.4,0,4.3,0.8,5.8,2.5c1.5,1.7,2.2,4.2,2.2,7.6C167.5,37.2,167,39,166.2,40.8z M155.4,28.8c-0.6,0.3-1,0.6-1.3,0.9v13.5
				c0.2,0.2,0.5,0.4,0.9,0.6c0.4,0.1,0.9,0.2,1.4,0.2c1.4,0,2.5-0.7,3.3-2c0.8-1.3,1.2-3.5,1.2-6.5c0-2.4-0.3-4.2-1-5.4
				c-0.7-1.2-1.6-1.8-2.8-1.8C156.6,28.4,156,28.5,155.4,28.8z"/>
			<path class="st1" d="M170.3,43.6l2.3-0.3V29.4l-2.2-0.7v-2.9l6.1-0.8h0.1l1,0.8v0.9l-0.1,3.1h0.1c0.2-0.6,0.6-1.2,1.2-2
				s1.4-1.4,2.3-2c0.9-0.6,2-0.8,3.1-0.8c0.6,0,1.1,0.1,1.5,0.3v6.4c-0.4-0.3-0.8-0.5-1.3-0.7c-0.5-0.2-1-0.3-1.8-0.3
				c-0.9,0-1.7,0.1-2.4,0.4c-0.7,0.2-1.3,0.5-1.7,0.8v11.4l4.1,0.4v2.4h-12.4V43.6z"/>
			<path class="st1" d="M190.3,29.4l-2.5-0.7v-2.8l7.4-0.9h0.1l1.1,0.8v17.5l2.2,0.3v2.4H188v-2.4l2.3-0.3V29.4z M190.2,21.5
				c-0.6-0.6-0.9-1.3-0.9-2.2c0-1,0.3-1.9,1-2.6s1.5-1,2.6-1c1.1,0,2,0.3,2.6,0.9c0.6,0.6,0.9,1.3,0.9,2.2c0,1.1-0.3,1.9-1,2.6
				c-0.7,0.7-1.6,1-2.8,1h0C191.6,22.3,190.8,22,190.2,21.5z"/>
			<path class="st1" d="M203.3,29.4l-2.2-0.7v-2.9l6.7-0.8h0.1l1,0.8v1.4l0,0.9c0.9-0.8,2-1.5,3.3-2.1c1.3-0.6,2.7-0.9,4.2-0.9
				c1.5,0,2.6,0.3,3.5,0.8c0.9,0.5,1.5,1.4,1.8,2.5c0.4,1.2,0.6,2.7,0.6,4.7v10.1l2.1,0.3v2.5h-10.1v-2.4l1.8-0.3V33.2
				c0-1.2-0.1-2.1-0.2-2.8c-0.2-0.7-0.4-1.1-0.8-1.4c-0.4-0.3-1-0.4-1.7-0.4c-1.1,0-2.4,0.5-3.8,1.6v13.1l2,0.3v2.4h-10.2v-2.4
				l2-0.3V29.4z"/>
			<path class="st1" d="M229.4,45.3c-0.8-0.8-1.2-1.9-1.2-3.5V28.6H226v-2.1l0.7-0.3c0.6-0.2,1.1-0.4,1.6-0.6
				c0.5-0.5,0.9-1.1,1.2-1.8c0.4-0.9,0.8-2.1,1.2-3.7h3.4l0.2,5.6h5.3v3.1h-5.2v9.8c0,1.4,0,2.3,0.1,2.8c0.1,0.5,0.2,0.9,0.4,1.1
				c0.2,0.2,0.6,0.2,1.2,0.2c1.2,0,2.3-0.2,3.3-0.6l0.8,2.3c-0.7,0.6-1.7,1.1-3.1,1.5c-1.4,0.4-2.7,0.6-4.1,0.6
				C231.4,46.4,230.2,46,229.4,45.3z"/>
			<path class="st1" d="M246.5,43c0.2,0.3,0.6,0.5,1.2,0.7s1.3,0.3,1.9,0.3c1,0,1.8-0.2,2.3-0.6c0.5-0.4,0.8-1,0.8-1.7
				c0-0.7-0.3-1.4-1-1.8c-0.7-0.5-1.8-1.1-3.4-1.8l-1.4-0.6c-1.6-0.7-2.8-1.6-3.6-2.6S242,32.6,242,31c0-1.1,0.3-2.2,1-3.1
				s1.6-1.6,2.9-2.1c1.3-0.5,2.7-0.8,4.4-0.8c1.2,0,2.2,0.1,3.1,0.2s1.7,0.3,2.6,0.6c0.6,0.2,1,0.3,1.3,0.3v5h-3.3l-1-2.8
				c-0.1-0.2-0.4-0.4-0.9-0.6c-0.5-0.2-1-0.3-1.6-0.3c-0.9,0-1.7,0.2-2.2,0.6c-0.5,0.4-0.8,1-0.8,1.6c0,0.8,0.3,1.4,0.9,1.9
				c0.6,0.5,1.6,1,3,1.6l0.8,0.3c2,0.8,3.6,1.7,4.7,2.7c1.1,1,1.7,2.3,1.7,4c0,1.8-0.7,3.3-2.2,4.5c-1.5,1.2-3.6,1.8-6.4,1.8
				c-1.3,0-2.5-0.1-3.5-0.3c-1-0.2-2.1-0.5-3.3-0.8L242,45v-4.9h3.5L246.5,43z"/>
		</g>
	</g>
	<g>
		
			<use xlink:href="#CNR"  width="22.9" height="22.9" x="-11.4" y="-11.4" transform="matrix(0.7579 0 0 -0.7579 16.1076 17.7144)" style="overflow:visible;"/>
		
			<use xlink:href="#CNR"  width="22.9" height="22.9" id="XMLID_1_" x="-11.4" y="-11.4" transform="matrix(0 0.7579 0.7579 0 41.3004 17.7144)" style="overflow:visible;"/>
		
			<use xlink:href="#CNR"  width="22.9" height="22.9" x="-11.4" y="-11.4" transform="matrix(-0.7579 0 0 0.7579 41.3004 42.9072)" style="overflow:visible;"/>
		
			<use xlink:href="#CNR"  width="22.9" height="22.9" x="-11.4" y="-11.4" transform="matrix(0 -0.7579 -0.7579 0 16.1076 42.9072)" style="overflow:visible;"/>
	</g>
	<g>
		<ellipse class="st1" cx="28.7" cy="25.5" rx="3.1" ry="4.7"/>
		<ellipse transform="matrix(0.5 -0.866 0.866 0.5 -8.8603 46.048)" class="st1" cx="35.4" cy="30.7" rx="4.7" ry="3.1"/>
		<ellipse transform="matrix(0.866 -0.5 0.5 0.866 -12.3857 15.1703)" class="st1" cx="22.1" cy="30.7" rx="3.1" ry="4.7"/>
	</g>
	<g>
		<path class="st1" d="M259.9,45.8c-0.2-0.2-0.4-0.5-0.4-0.8c0-0.4,0.1-0.7,0.4-0.9c0.3-0.2,0.6-0.4,1-0.4c0.4,0,0.7,0.1,0.9,0.4
			c0.2,0.2,0.3,0.5,0.3,0.8c0,0.4-0.1,0.7-0.4,0.9c-0.3,0.2-0.6,0.3-1,0.3C260.4,46.2,260.2,46.1,259.9,45.8z"/>
		<path class="st1" d="M264.2,39.9c0.4-0.6,0.8-1.1,1.4-1.4c0.6-0.3,1.3-0.5,2-0.5c1.2,0,2.1,0.4,2.8,1.1s1,1.7,1,2.9
			c0,0.9-0.2,1.7-0.5,2.3c-0.4,0.6-0.8,1.1-1.4,1.4c-0.6,0.3-1.3,0.4-2,0.4c-1.2,0-2.1-0.4-2.8-1.1s-1-1.7-1-2.9
			C263.7,41.3,263.9,40.6,264.2,39.9z M268.6,44.5c0.2-0.5,0.3-1.2,0.3-2.3c0-1.1-0.1-1.9-0.3-2.4s-0.6-0.8-1.1-0.8
			c-0.9,0-1.4,1-1.4,3c0,1.1,0.1,1.9,0.3,2.4c0.2,0.5,0.6,0.8,1.1,0.8C268,45.2,268.4,45,268.6,44.5z"/>
		<path class="st1" d="M272.7,45.1l0.9-0.1v-5.3l-0.8-0.3v-1.1l2.3-0.3h0l0.4,0.3v0.3l0,1.2h0c0.1-0.2,0.2-0.5,0.4-0.7
			s0.5-0.5,0.9-0.7s0.7-0.3,1.2-0.3c0.2,0,0.4,0,0.6,0.1v2.4c-0.1-0.1-0.3-0.2-0.5-0.3s-0.4-0.1-0.7-0.1c-0.3,0-0.6,0-0.9,0.1
			c-0.3,0.1-0.5,0.2-0.6,0.3V45l1.5,0.1v0.9h-4.7V45.1z"/>
		<path class="st1" d="M280,49.2c-0.6-0.4-0.9-0.9-0.9-1.6c0-0.4,0.1-0.7,0.4-1.1c0.3-0.3,0.6-0.6,1-0.8c-0.4-0.3-0.7-0.7-0.7-1.2
			c0-0.3,0.1-0.6,0.3-0.9s0.5-0.5,0.8-0.7c-1-0.4-1.6-1.2-1.6-2.4c0-0.5,0.2-1,0.5-1.4s0.7-0.7,1.3-0.9c0.5-0.2,1.1-0.3,1.8-0.3
			c1.2,0,2,0.2,2.6,0.6c0.1-0.2,0.3-0.3,0.6-0.5c0.3-0.1,0.6-0.2,0.9-0.2h0.5v1.7h-1.4c0.1,0.3,0.1,0.5,0.1,0.8c0,0.9-0.3,1.5-0.9,2
			s-1.5,0.8-2.6,0.8c-0.5,0-0.8,0-1.1-0.1c-0.1,0.1-0.1,0.2-0.1,0.3c0,0.1,0,0.2,0,0.3c0,0.3,0.1,0.5,0.3,0.6
			c0.2,0.1,0.6,0.2,1.2,0.2h1.4c2,0,3,0.7,3,2.1c0,0.6-0.2,1.2-0.6,1.6c-0.4,0.5-1,0.8-1.7,1.1c-0.7,0.2-1.4,0.4-2.2,0.4
			C281.5,49.8,280.6,49.6,280,49.2z M284.4,48.4c0.4-0.3,0.5-0.7,0.5-1.1c0-0.4-0.1-0.7-0.3-0.8c-0.2-0.2-0.5-0.2-1-0.2h-1.4
			c-0.1,0-0.3,0-0.5,0c-0.2,0.3-0.3,0.6-0.3,1.1c0,1.1,0.6,1.6,1.7,1.6C283.6,48.8,284,48.7,284.4,48.4z M283.8,42
			c0.2-0.3,0.3-0.7,0.3-1.3c0-0.6-0.1-1-0.3-1.3c-0.2-0.3-0.5-0.4-0.9-0.4c-0.8,0-1.2,0.6-1.2,1.7c0,1.2,0.4,1.8,1.2,1.8
			C283.3,42.4,283.6,42.3,283.8,42z"/>
		<path class="st1" d="M288.8,45.8c-0.2-0.2-0.4-0.5-0.4-0.8c0-0.4,0.1-0.7,0.4-0.9c0.3-0.2,0.6-0.4,1-0.4c0.4,0,0.7,0.1,0.9,0.4
			c0.2,0.2,0.3,0.5,0.3,0.8c0,0.4-0.1,0.7-0.4,0.9c-0.3,0.2-0.6,0.3-1,0.3C289.3,46.2,289.1,46.1,288.8,45.8z"/>
		<path class="st1" d="M293.3,39.7l-0.8-0.3v-1.1l2.5-0.3h0l0.4,0.3v0.5l0,0.3c0.3-0.3,0.7-0.6,1.2-0.8c0.5-0.2,1-0.3,1.6-0.3
			c0.6,0,1,0.1,1.3,0.3c0.3,0.2,0.6,0.5,0.7,1c0.1,0.4,0.2,1,0.2,1.8V45l0.8,0.1v0.9h-3.8v-0.9l0.7-0.1v-3.8c0-0.4,0-0.8-0.1-1
			c-0.1-0.2-0.2-0.4-0.3-0.5c-0.1-0.1-0.4-0.2-0.6-0.2c-0.4,0-0.9,0.2-1.5,0.6v5l0.8,0.1v0.9h-3.9v-0.9l0.8-0.1V39.7z"/>
		<path class="st1" d="M303.9,39.4l-0.4,1.4h-1.1v-2.5h6.3l0.4,0.8l-3.5,4.9l-1,1.1l2.8-0.2l0.7-1.6l1,0.1l-0.2,2.6h-6.6l-0.4-0.9
			l3.6-4.8l1.1-1.1L303.9,39.4z"/>
	</g>
</g>
<g>
	<path class="st1" d="M71.6,65.2l-0.9,6.3h-0.9l0.9-6.3H71.6z"/>
	<path class="st1" d="M77.1,64.8l-0.9,6.7h-0.7l0-0.8c-0.2,0.3-0.4,0.5-0.6,0.7c-0.2,0.2-0.5,0.2-0.8,0.2c-0.5,0-0.9-0.2-1.1-0.5
		c-0.3-0.3-0.4-0.8-0.4-1.4c0-0.5,0.1-0.9,0.2-1.4c0.2-0.5,0.4-0.9,0.7-1.2c0.3-0.3,0.8-0.5,1.3-0.5c0.5,0,0.9,0.2,1.2,0.6l0.4-2.5
		L77.1,64.8z M73.9,67.6c-0.2,0.3-0.4,0.6-0.5,1c-0.1,0.4-0.1,0.8-0.1,1.1c0,0.4,0.1,0.7,0.2,0.9c0.1,0.2,0.3,0.3,0.6,0.3
		c0.3,0,0.5-0.1,0.7-0.3c0.2-0.2,0.4-0.5,0.7-0.8l0.3-2c-0.1-0.2-0.3-0.3-0.4-0.4c-0.2-0.1-0.3-0.1-0.6-0.1
		C74.5,67.2,74.2,67.4,73.9,67.6z"/>
	<path class="st1" d="M80.9,69.1c-0.5,0.3-1.3,0.5-2.3,0.6c0,0.8,0.4,1.2,1,1.2c0.2,0,0.4,0,0.6-0.1c0.2-0.1,0.4-0.2,0.6-0.3
		l0.4,0.6c-0.5,0.4-1.1,0.6-1.7,0.6c-0.6,0-1-0.2-1.4-0.5c-0.3-0.3-0.5-0.8-0.5-1.4c0-0.5,0.1-1,0.2-1.4c0.2-0.5,0.4-0.9,0.8-1.2
		c0.4-0.3,0.8-0.5,1.4-0.5c0.5,0,0.9,0.1,1.1,0.4c0.3,0.2,0.4,0.5,0.4,0.9C81.8,68.4,81.5,68.9,80.9,69.1z M80.4,68.7
		c0.4-0.2,0.5-0.5,0.5-0.8c0-0.1-0.1-0.3-0.2-0.4c-0.1-0.1-0.3-0.2-0.5-0.2c-0.5,0-0.8,0.2-1.1,0.5c-0.2,0.4-0.4,0.8-0.5,1.3
		C79.5,69,80,68.8,80.4,68.7z"/>
	<path class="st1" d="M86.3,66.9c0.2,0.2,0.3,0.5,0.3,0.9c0,0.1,0,0.2,0,0.3l-0.5,3.4h-0.8l0.5-3.3c0-0.1,0-0.2,0-0.3
		c0-0.2,0-0.4-0.1-0.5c-0.1-0.1-0.2-0.1-0.4-0.1c-0.3,0-0.5,0.1-0.8,0.4c-0.3,0.2-0.5,0.6-0.7,1l-0.4,2.9h-0.8l0.7-4.8h0.7l-0.1,0.9
		c0.2-0.3,0.5-0.6,0.8-0.8c0.3-0.2,0.6-0.3,0.9-0.3C85.9,66.6,86.1,66.7,86.3,66.9z"/>
	<path class="st1" d="M88.9,70.2c0,0.1,0,0.2,0,0.2c0,0.2,0,0.3,0.1,0.3c0.1,0.1,0.2,0.1,0.3,0.1c0.1,0,0.2,0,0.3,0
		c0.1,0,0.2-0.1,0.4-0.2l0.3,0.6c-0.3,0.2-0.7,0.3-1.1,0.3c-0.4,0-0.7-0.1-0.9-0.3c-0.2-0.2-0.3-0.5-0.3-0.8c0-0.1,0-0.2,0-0.3
		l0.4-2.9h-0.8l0.1-0.6h0.9l0.3-1.1l0.7-0.1l-0.2,1.2h1.1l-0.2,0.6h-1L88.9,70.2z"/>
	<path class="st1" d="M92.5,66.7l-0.7,4.8H91l0.7-4.8H92.5z M91.9,65.4c-0.1-0.1-0.1-0.2-0.1-0.4c0-0.2,0.1-0.3,0.2-0.4
		c0.1-0.1,0.3-0.2,0.4-0.2c0.2,0,0.3,0,0.4,0.1s0.1,0.2,0.1,0.4c0,0.2-0.1,0.3-0.2,0.4c-0.1,0.1-0.3,0.2-0.4,0.2
		C92.2,65.5,92,65.5,91.9,65.4z"/>
	<path class="st1" d="M95.5,65.5c-0.1,0.1-0.2,0.3-0.2,0.5l-0.1,0.6h1.2l-0.2,0.6h-1.1l-0.5,3.9c-0.1,0.4-0.2,0.8-0.3,1.1
		s-0.3,0.5-0.6,0.6c-0.2,0.2-0.5,0.3-0.9,0.5l-0.2-0.6c0.3-0.1,0.5-0.2,0.6-0.3s0.3-0.3,0.4-0.5s0.2-0.5,0.2-0.8l0.5-3.9h-0.8
		l0.1-0.6h0.8l0.1-0.7c0.1-0.4,0.2-0.7,0.5-1c0.3-0.2,0.7-0.4,1.1-0.4c0.2,0,0.4,0,0.6,0.1s0.4,0.1,0.5,0.3l-0.3,0.6
		c-0.2-0.2-0.5-0.2-0.8-0.2C95.8,65.3,95.6,65.4,95.5,65.5z"/>
	<path class="st1" d="M98.5,71.5c-0.2,0.6-0.6,1-1,1.3c-0.4,0.3-0.9,0.5-1.5,0.6l0-0.7c0.3-0.1,0.6-0.1,0.8-0.2
		c0.2-0.1,0.4-0.2,0.5-0.4c0.1-0.2,0.3-0.4,0.4-0.7h-0.3l-0.9-4.8h0.9l0.7,4.2l1.8-4.2h0.9L98.5,71.5z"/>
	<path class="st1" d="M107.8,71.5h-1.1l-1.8-5.5c0,0.7-0.1,1.6-0.2,2.7l-0.4,2.8h-0.8l0.9-6.3h1.1l1.8,5.5c0-0.4,0-0.8,0-1.1
		c0-0.3,0.1-0.7,0.1-1.1l0.5-3.4h0.8L107.8,71.5z"/>
	<path class="st1" d="M112.6,69.1c-0.5,0.3-1.3,0.5-2.3,0.6c0,0.8,0.4,1.2,1,1.2c0.2,0,0.4,0,0.6-0.1c0.2-0.1,0.4-0.2,0.6-0.3
		L113,71c-0.5,0.4-1.1,0.6-1.7,0.6c-0.6,0-1-0.2-1.4-0.5c-0.3-0.3-0.5-0.8-0.5-1.4c0-0.5,0.1-1,0.2-1.4c0.2-0.5,0.4-0.9,0.8-1.2
		c0.4-0.3,0.8-0.5,1.4-0.5c0.5,0,0.9,0.1,1.1,0.4c0.3,0.2,0.4,0.5,0.4,0.9C113.4,68.4,113.2,68.9,112.6,69.1z M112,68.7
		c0.4-0.2,0.5-0.5,0.5-0.8c0-0.1-0.1-0.3-0.2-0.4c-0.1-0.1-0.3-0.2-0.5-0.2c-0.5,0-0.8,0.2-1.1,0.5c-0.2,0.4-0.4,0.8-0.5,1.3
		C111.1,69,111.7,68.8,112,68.7z"/>
	<path class="st1" d="M120.3,66.7l-1.7,4.8h-1.1l-0.3-4l-1.4,4h-1.1l-0.4-4.8h0.8l0.3,4.2l1.5-4.2h0.9l0.3,4.2l1.5-4.2H120.3z"/>
	<path class="st1" d="M122.4,71.5l0.1-0.7l3.8-4.8h-2.7l0.1-0.7h3.7l-0.1,0.7l-3.7,4.8l3,0l-0.2,0.7H122.4z"/>
	<path class="st1" d="M130.6,69.1c-0.5,0.3-1.3,0.5-2.3,0.6c0,0.8,0.4,1.2,1,1.2c0.2,0,0.4,0,0.6-0.1c0.2-0.1,0.4-0.2,0.6-0.3
		L131,71c-0.5,0.4-1.1,0.6-1.7,0.6c-0.6,0-1-0.2-1.4-0.5c-0.3-0.3-0.5-0.8-0.5-1.4c0-0.5,0.1-1,0.2-1.4c0.2-0.5,0.4-0.9,0.8-1.2
		c0.4-0.3,0.8-0.5,1.4-0.5c0.5,0,0.9,0.1,1.1,0.4c0.3,0.2,0.4,0.5,0.4,0.9C131.5,68.4,131.2,68.9,130.6,69.1z M130,68.7
		c0.4-0.2,0.5-0.5,0.5-0.8c0-0.1-0.1-0.3-0.2-0.4c-0.1-0.1-0.3-0.2-0.5-0.2c-0.5,0-0.8,0.2-1.1,0.5c-0.2,0.4-0.4,0.8-0.5,1.3
		C129.1,69,129.7,68.8,130,68.7z"/>
	<path class="st1" d="M135.5,66.7c0.3,0.1,0.5,0.2,0.8,0.3l-0.5,3.4c0,0.1,0,0.2,0,0.2c0,0.1,0,0.2,0.1,0.3c0,0.1,0.1,0.1,0.2,0.2
		l-0.2,0.6c-0.3,0-0.5-0.1-0.6-0.2c-0.1-0.1-0.2-0.3-0.3-0.6c-0.2,0.2-0.4,0.4-0.7,0.6s-0.5,0.2-0.8,0.2c-0.5,0-0.9-0.2-1.1-0.5
		c-0.3-0.3-0.4-0.8-0.4-1.3c0-0.5,0.1-1,0.3-1.5c0.2-0.5,0.5-0.9,0.8-1.2c0.4-0.3,0.9-0.5,1.4-0.5C135,66.6,135.2,66.6,135.5,66.7z
		 M133.7,67.6c-0.3,0.3-0.4,0.6-0.6,1s-0.2,0.8-0.2,1.2s0.1,0.7,0.2,0.9c0.1,0.2,0.3,0.3,0.6,0.3c0.2,0,0.5-0.1,0.7-0.2
		c0.2-0.2,0.4-0.4,0.6-0.7l0.4-2.6c-0.1-0.1-0.2-0.1-0.4-0.1c-0.1,0-0.3,0-0.4,0C134.3,67.2,134,67.4,133.7,67.6z"/>
	<path class="st1" d="M138.3,70.5c0,0,0,0.1,0,0.1c0,0.1,0,0.1,0.1,0.2c0,0,0.1,0.1,0.2,0.1c0.1,0,0.2,0,0.3-0.1l0.2,0.6
		c-0.2,0.1-0.5,0.2-0.7,0.2c-0.3,0-0.5-0.1-0.7-0.2c-0.2-0.2-0.2-0.4-0.2-0.7c0-0.1,0-0.1,0-0.3l0.8-5.7l0.8-0.1L138.3,70.5z"/>
	<path class="st1" d="M143.3,66.7c0.3,0.1,0.5,0.2,0.8,0.3l-0.5,3.4c0,0.1,0,0.2,0,0.2c0,0.1,0,0.2,0.1,0.3c0,0.1,0.1,0.1,0.2,0.2
		l-0.2,0.6c-0.3,0-0.5-0.1-0.6-0.2c-0.1-0.1-0.2-0.3-0.3-0.6c-0.2,0.2-0.4,0.4-0.7,0.6s-0.5,0.2-0.8,0.2c-0.5,0-0.9-0.2-1.1-0.5
		c-0.3-0.3-0.4-0.8-0.4-1.3c0-0.5,0.1-1,0.3-1.5c0.2-0.5,0.5-0.9,0.8-1.2c0.4-0.3,0.9-0.5,1.4-0.5C142.7,66.6,143,66.6,143.3,66.7z
		 M141.5,67.6c-0.3,0.3-0.4,0.6-0.6,1s-0.2,0.8-0.2,1.2s0.1,0.7,0.2,0.9c0.1,0.2,0.3,0.3,0.6,0.3c0.2,0,0.5-0.1,0.7-0.2
		c0.2-0.2,0.4-0.4,0.6-0.7l0.4-2.6c-0.1-0.1-0.2-0.1-0.4-0.1c-0.1,0-0.3,0-0.4,0C142.1,67.2,141.7,67.4,141.5,67.6z"/>
	<path class="st1" d="M148.9,66.9c0.2,0.2,0.3,0.5,0.3,0.9c0,0.1,0,0.2,0,0.3l-0.5,3.4h-0.8l0.5-3.3c0-0.1,0-0.2,0-0.3
		c0-0.2,0-0.4-0.1-0.5c-0.1-0.1-0.2-0.1-0.4-0.1c-0.3,0-0.5,0.1-0.8,0.4c-0.3,0.2-0.5,0.6-0.7,1l-0.4,2.9h-0.8l0.7-4.8h0.7l-0.1,0.9
		c0.2-0.3,0.5-0.6,0.8-0.8c0.3-0.2,0.6-0.3,0.9-0.3C148.4,66.6,148.7,66.7,148.9,66.9z"/>
	<path class="st1" d="M155,64.8l-0.9,6.7h-0.7l0-0.8c-0.2,0.3-0.4,0.5-0.6,0.7c-0.2,0.2-0.5,0.2-0.8,0.2c-0.5,0-0.9-0.2-1.1-0.5
		c-0.3-0.3-0.4-0.8-0.4-1.4c0-0.5,0.1-0.9,0.2-1.4c0.2-0.5,0.4-0.9,0.7-1.2c0.3-0.3,0.8-0.5,1.3-0.5c0.5,0,0.9,0.2,1.2,0.6l0.4-2.5
		L155,64.8z M151.8,67.6c-0.2,0.3-0.4,0.6-0.5,1c-0.1,0.4-0.1,0.8-0.1,1.1c0,0.4,0.1,0.7,0.2,0.9c0.1,0.2,0.3,0.3,0.6,0.3
		c0.3,0,0.5-0.1,0.7-0.3c0.2-0.2,0.4-0.5,0.7-0.8l0.3-2c-0.1-0.2-0.3-0.3-0.4-0.4c-0.2-0.1-0.3-0.1-0.6-0.1
		C152.3,67.2,152.1,67.4,151.8,67.6z"/>
	<path class="st1" d="M160,65.5c-0.1,0.1-0.2,0.3-0.2,0.5l-0.1,0.6h1.2l-0.2,0.6h-1.1l-0.5,3.9c-0.1,0.4-0.2,0.8-0.3,1.1
		s-0.3,0.5-0.6,0.6c-0.2,0.2-0.5,0.3-0.9,0.5l-0.2-0.6c0.3-0.1,0.5-0.2,0.6-0.3s0.3-0.3,0.4-0.5s0.2-0.5,0.2-0.8l0.5-3.9h-0.8
		l0.1-0.6h0.8l0.1-0.7c0.1-0.4,0.2-0.7,0.5-1c0.3-0.2,0.7-0.4,1.1-0.4c0.2,0,0.4,0,0.6,0.1s0.4,0.1,0.5,0.3l-0.3,0.6
		c-0.2-0.2-0.5-0.2-0.8-0.2C160.3,65.3,160.1,65.4,160,65.5z"/>
	<path class="st1" d="M161.4,71.1c-0.3-0.4-0.5-0.8-0.5-1.5c0-0.4,0.1-0.9,0.2-1.4c0.2-0.5,0.4-0.9,0.8-1.2c0.4-0.3,0.8-0.5,1.4-0.5
		c0.6,0,1,0.2,1.4,0.5c0.3,0.4,0.5,0.8,0.5,1.5c0,0.4-0.1,0.9-0.2,1.4s-0.4,0.9-0.8,1.2c-0.4,0.3-0.8,0.5-1.4,0.5
		C162.2,71.6,161.7,71.4,161.4,71.1z M163.7,70.5c0.2-0.3,0.4-0.6,0.5-1c0.1-0.4,0.1-0.7,0.1-1.1c0-0.8-0.3-1.2-1-1.2
		c-0.4,0-0.7,0.1-0.9,0.4s-0.4,0.6-0.5,1c-0.1,0.4-0.2,0.7-0.2,1.1c0,0.8,0.3,1.2,1,1.2C163.2,70.9,163.5,70.8,163.7,70.5z"/>
	<path class="st1" d="M166.7,71.1c-0.3-0.4-0.5-0.8-0.5-1.5c0-0.4,0.1-0.9,0.3-1.4c0.2-0.5,0.4-0.9,0.8-1.2s0.8-0.5,1.4-0.5
		c0.6,0,1,0.2,1.4,0.5s0.5,0.8,0.5,1.5c0,0.4-0.1,0.9-0.2,1.4s-0.4,0.9-0.8,1.2c-0.4,0.3-0.8,0.5-1.4,0.5
		C167.4,71.6,167,71.4,166.7,71.1z M169,70.5c0.2-0.3,0.4-0.6,0.5-1s0.1-0.7,0.1-1.1c0-0.8-0.3-1.2-1-1.2c-0.4,0-0.7,0.1-0.9,0.4
		c-0.2,0.3-0.4,0.6-0.5,1c-0.1,0.4-0.2,0.7-0.2,1.1c0,0.8,0.3,1.2,1,1.2C168.4,70.9,168.7,70.8,169,70.5z"/>
	<path class="st1" d="M172.5,70.2c0,0.1,0,0.2,0,0.2c0,0.2,0,0.3,0.1,0.3c0.1,0.1,0.2,0.1,0.3,0.1c0.1,0,0.2,0,0.3,0
		c0.1,0,0.2-0.1,0.4-0.2l0.3,0.6c-0.3,0.2-0.7,0.3-1.1,0.3c-0.4,0-0.7-0.1-0.9-0.3c-0.2-0.2-0.3-0.5-0.3-0.8c0-0.1,0-0.2,0-0.3
		l0.4-2.9h-0.8l0.1-0.6h0.9l0.3-1.1l0.7-0.1l-0.2,1.2h1.1l-0.2,0.6h-1L172.5,70.2z"/>
	<path class="st1" d="M175.4,66.7h0.7l0,0.6c0.2-0.3,0.5-0.4,0.7-0.6c0.2-0.1,0.5-0.2,0.7-0.2c0.5,0,0.8,0.2,1.1,0.5
		c0.3,0.3,0.4,0.8,0.4,1.4c0,0.5-0.1,1-0.3,1.5c-0.2,0.5-0.5,0.9-0.8,1.2s-0.9,0.5-1.4,0.5c-0.3,0-0.6-0.1-0.9-0.2l-0.3,1.9
		l-0.8,0.1L175.4,66.7z M177.4,70.5c0.2-0.3,0.4-0.6,0.5-1c0.1-0.4,0.2-0.8,0.2-1.2c0-0.8-0.3-1.2-0.8-1.2c-0.2,0-0.5,0.1-0.7,0.2
		s-0.4,0.3-0.6,0.5l-0.4,2.8c0.2,0.1,0.3,0.1,0.4,0.1s0.3,0,0.4,0C176.9,70.9,177.2,70.8,177.4,70.5z"/>
	<path class="st1" d="M183.2,66.6l-0.2,0.8c-0.1,0-0.2,0-0.4,0c-0.3,0-0.6,0.1-0.8,0.4c-0.2,0.3-0.4,0.6-0.6,1.2l-0.4,2.5H180
		l0.7-4.8h0.7l-0.1,1c0.2-0.4,0.4-0.6,0.6-0.8c0.2-0.2,0.5-0.3,0.8-0.3C182.9,66.6,183,66.6,183.2,66.6z"/>
	<path class="st1" d="M185,66.7l-0.7,4.8h-0.8l0.7-4.8H185z M184.3,65.4c-0.1-0.1-0.1-0.2-0.1-0.4c0-0.2,0.1-0.3,0.2-0.4
		c0.1-0.1,0.3-0.2,0.4-0.2c0.2,0,0.3,0,0.4,0.1c0.1,0.1,0.1,0.2,0.1,0.4c0,0.2-0.1,0.3-0.2,0.4s-0.3,0.2-0.4,0.2
		C184.6,65.5,184.4,65.5,184.3,65.4z"/>
	<path class="st1" d="M189.8,66.9c0.2,0.2,0.3,0.5,0.3,0.9c0,0.1,0,0.2,0,0.3l-0.5,3.4h-0.8l0.5-3.3c0-0.1,0-0.2,0-0.3
		c0-0.2,0-0.4-0.1-0.5c-0.1-0.1-0.2-0.1-0.4-0.1c-0.3,0-0.5,0.1-0.8,0.4c-0.3,0.2-0.5,0.6-0.7,1l-0.4,2.9H186l0.7-4.8h0.7l-0.1,0.9
		c0.2-0.3,0.5-0.6,0.8-0.8c0.3-0.2,0.6-0.3,0.9-0.3C189.3,66.6,189.6,66.7,189.8,66.9z"/>
	<path class="st1" d="M192.3,70.2c0,0.1,0,0.2,0,0.2c0,0.2,0,0.3,0.1,0.3c0.1,0.1,0.2,0.1,0.3,0.1c0.1,0,0.2,0,0.3,0
		c0.1,0,0.2-0.1,0.4-0.2l0.3,0.6c-0.3,0.2-0.7,0.3-1.1,0.3c-0.4,0-0.7-0.1-0.9-0.3c-0.2-0.2-0.3-0.5-0.3-0.8c0-0.1,0-0.2,0-0.3
		l0.4-2.9h-0.8l0.1-0.6h0.9l0.3-1.1l0.7-0.1l-0.2,1.2h1.1l-0.2,0.6h-1L192.3,70.2z"/>
	<path class="st1" d="M198,67.2l-0.4,0.5c-0.4-0.3-0.7-0.4-1.2-0.4c-0.3,0-0.5,0.1-0.7,0.2c-0.2,0.1-0.3,0.3-0.3,0.5
		c0,0.2,0.1,0.3,0.2,0.4c0.1,0.1,0.4,0.2,0.8,0.3c0.5,0.1,0.8,0.3,1,0.6s0.3,0.5,0.3,0.9c0,0.3-0.1,0.6-0.3,0.9
		c-0.2,0.2-0.4,0.4-0.7,0.5c-0.3,0.1-0.6,0.2-1,0.2c-0.7,0-1.3-0.2-1.8-0.7l0.5-0.5c0.4,0.3,0.8,0.5,1.3,0.5c0.4,0,0.7-0.1,0.8-0.2
		c0.2-0.2,0.3-0.3,0.3-0.5c0-0.2,0-0.3-0.1-0.4c-0.1-0.1-0.2-0.2-0.3-0.3c-0.1-0.1-0.3-0.2-0.6-0.2c-0.5-0.1-0.8-0.3-1-0.5
		s-0.3-0.5-0.3-0.8c0-0.2,0.1-0.4,0.2-0.7c0.1-0.2,0.3-0.4,0.6-0.5c0.3-0.1,0.6-0.2,1-0.2C197,66.6,197.5,66.8,198,67.2z"/>
</g>
</svg>
